STARTFONT 2.1
FONT --Tms Rmn-Regular-R-Medium--13-80-120-120-P-72-IBM-UGL
SIZE 8 120 120
FONTBOUNDINGBOX 13 16 0 -3
METRICSSET 2
STARTPROPERTIES 27
FONT_ASCENT 10
FONT_DESCENT 3
PIXEL_SIZE 13
RESOLUTION_X 120
RESOLUTION_Y 120
POINT_SIZE 80
FACE_NAME "Tms Rmn"
FOUNDRY ""
FAMILY_NAME "Tms Rmn"
WEIGHT_NAME "Regular"
RELATIVE_WEIGHT 50
SLANT "R"
SPACING "P"
SETWIDTH_NAME "Medium"
RELATIVE_SETWIDTH 50
ADD_STYLE_NAME ""
AVERAGE_WIDTH 72
UNDERLINE_POSITION 2
SUPERSCRIPT_SIZE 10
SUBSCRIPT_SIZE 10
SUPERSCRIPT_X 0
SUPERSCRIPT_Y 5
SUBSCRIPT_X 0
SUBSCRIPT_Y 2
DEFAULT_CHAR 32
CHARSET_REGISTRY "IBM"
CHARSET_ENCODING "UGL"
ENDPROPERTIES
CHARS 382
STARTCHAR smileface
ENCODING 1
SWIDTH 750 0
DWIDTH 10 0
BBX 8 9 1 0
VVECTOR 5 13
SWIDTH1 0 -1200
DWIDTH1 0 -16
BITMAP 
3C
42
A5
A5
81
A5
99
42
3C
ENDCHAR
STARTCHAR invsmileface
ENCODING 2
SWIDTH 750 0
DWIDTH 10 0
BBX 8 9 1 0
VVECTOR 5 13
SWIDTH1 0 -1200
DWIDTH1 0 -16
BITMAP 
3C
7E
DB
DB
FF
BD
C3
7E
3C
ENDCHAR
STARTCHAR heart
ENCODING 3
SWIDTH 675 0
DWIDTH 9 0
BBX 7 9 1 0
VVECTOR 5 13
SWIDTH1 0 -1200
DWIDTH1 0 -16
BITMAP 
6C
FE
FE
FE
7C
7C
38
10
10
ENDCHAR
STARTCHAR diamond
ENCODING 4
SWIDTH 675 0
DWIDTH 9 0
BBX 7 10 1 0
VVECTOR 5 13
SWIDTH1 0 -1200
DWIDTH1 0 -16
BITMAP 
10
38
38
7C
FE
FE
7C
38
38
10
ENDCHAR
STARTCHAR club
ENCODING 5
SWIDTH 675 0
DWIDTH 9 0
BBX 9 10 0 0
VVECTOR 5 13
SWIDTH1 0 -1200
DWIDTH1 0 -16
BITMAP 
1C00
3E00
3E00
1C00
7F00
FF80
FF80
6300
0800
3E00
ENDCHAR
STARTCHAR spade
ENCODING 6
SWIDTH 675 0
DWIDTH 9 0
BBX 9 9 0 0
VVECTOR 5 13
SWIDTH1 0 -1200
DWIDTH1 0 -16
BITMAP 
0800
1C00
3E00
7F00
FF80
FF80
6300
0800
3E00
ENDCHAR
STARTCHAR bullet
ENCODING 7
SWIDTH 750 0
DWIDTH 10 0
BBX 4 4 3 3
VVECTOR 5 13
SWIDTH1 0 -1200
DWIDTH1 0 -16
BITMAP 
60
F0
F0
60
ENDCHAR
STARTCHAR invbullet
ENCODING 8
SWIDTH 750 0
DWIDTH 10 0
BBX 10 10 0 0
VVECTOR 5 13
SWIDTH1 0 -1200
DWIDTH1 0 -16
BITMAP 
FFC0
FFC0
FFC0
F3C0
E1C0
E1C0
F3C0
FFC0
FFC0
FFC0
ENDCHAR
STARTCHAR circle
ENCODING 9
SWIDTH 750 0
DWIDTH 10 0
BBX 6 6 2 2
VVECTOR 5 13
SWIDTH1 0 -1200
DWIDTH1 0 -16
BITMAP 
30
48
84
84
48
30
ENDCHAR
STARTCHAR invcircle
ENCODING 10
SWIDTH 750 0
DWIDTH 10 0
BBX 10 10 0 0
VVECTOR 5 13
SWIDTH1 0 -1200
DWIDTH1 0 -16
BITMAP 
FFC0
FFC0
F3C0
EDC0
DEC0
DEC0
EDC0
F3C0
FFC0
FFC0
ENDCHAR
STARTCHAR male
ENCODING 11
SWIDTH 525 0
DWIDTH 7 0
BBX 7 8 0 1
VVECTOR 4 13
SWIDTH1 0 -1200
DWIDTH1 0 -16
BITMAP 
0E
06
0A
70
88
88
88
70
ENDCHAR
STARTCHAR female
ENCODING 12
SWIDTH 525 0
DWIDTH 7 0
BBX 5 9 1 1
VVECTOR 4 13
SWIDTH1 0 -1200
DWIDTH1 0 -16
BITMAP 
70
88
88
88
70
20
F8
20
20
ENDCHAR
STARTCHAR musicalnote
ENCODING 13
SWIDTH 450 0
DWIDTH 6 0
BBX 5 10 1 0
VVECTOR 4 13
SWIDTH1 0 -1200
DWIDTH1 0 -16
BITMAP 
20
20
30
28
28
28
28
60
E0
C0
ENDCHAR
STARTCHAR musicalnotedbl
ENCODING 14
SWIDTH 675 0
DWIDTH 9 0
BBX 8 10 0 0
VVECTOR 4 13
SWIDTH1 0 -1200
DWIDTH1 0 -16
BITMAP 
03
0D
33
2D
31
21
23
67
E6
C0
ENDCHAR
STARTCHAR sun
ENCODING 15
SWIDTH 675 0
DWIDTH 9 0
BBX 9 9 0 1
VVECTOR 5 13
SWIDTH1 0 -1200
DWIDTH1 0 -16
BITMAP 
0800
4900
3E00
2200
E380
2200
3E00
4900
0800
ENDCHAR
STARTCHAR triagrt
ENCODING 16
SWIDTH 675 0
DWIDTH 9 0
BBX 6 5 2 3
VVECTOR 6 13
SWIDTH1 0 -1200
DWIDTH1 0 -16
BITMAP 
C0
F0
FC
F0
C0
ENDCHAR
STARTCHAR triaglf
ENCODING 17
SWIDTH 675 0
DWIDTH 9 0
BBX 6 5 1 3
VVECTOR 4 13
SWIDTH1 0 -1200
DWIDTH1 0 -16
BITMAP 
0C
3C
FC
3C
0C
ENDCHAR
STARTCHAR arrowupdn
ENCODING 18
SWIDTH 525 0
DWIDTH 7 0
BBX 3 10 2 0
VVECTOR 4 13
SWIDTH1 0 -1200
DWIDTH1 0 -16
BITMAP 
40
E0
40
40
40
40
40
40
E0
40
ENDCHAR
STARTCHAR exclamdbl
ENCODING 19
SWIDTH 600 0
DWIDTH 8 0
BBX 4 10 2 0
VVECTOR 4 13
SWIDTH1 0 -1200
DWIDTH1 0 -16
BITMAP 
90
90
90
90
90
90
90
00
00
90
ENDCHAR
STARTCHAR char14
ENCODING 20
SWIDTH 525 0
DWIDTH 7 0
BBX 7 10 0 0
VVECTOR 4 13
SWIDTH1 0 -1200
DWIDTH1 0 -16
BITMAP 
7E
F4
F4
F4
74
14
14
14
14
14
ENDCHAR
STARTCHAR char15
ENCODING 21
SWIDTH 450 0
DWIDTH 6 0
BBX 4 12 1 -2
VVECTOR 3 13
SWIDTH1 0 -1200
DWIDTH1 0 -16
BITMAP 
60
90
80
40
A0
90
90
50
20
10
90
60
ENDCHAR
STARTCHAR filledrect
ENCODING 22
SWIDTH 750 0
DWIDTH 10 0
BBX 8 4 1 3
VVECTOR 5 13
SWIDTH1 0 -1200
DWIDTH1 0 -16
BITMAP 
FF
FF
FF
FF
ENDCHAR
STARTCHAR arrowupdnbse
ENCODING 23
SWIDTH 525 0
DWIDTH 7 0
BBX 5 12 1 -2
VVECTOR 4 13
SWIDTH1 0 -1200
DWIDTH1 0 -16
BITMAP 
20
70
20
20
20
20
20
20
70
20
00
F8
ENDCHAR
STARTCHAR arrowup
ENCODING 24
SWIDTH 525 0
DWIDTH 7 0
BBX 3 10 2 0
VVECTOR 4 13
SWIDTH1 0 -1200
DWIDTH1 0 -16
BITMAP 
40
E0
40
40
40
40
40
40
40
40
ENDCHAR
STARTCHAR arrowdown
ENCODING 25
SWIDTH 525 0
DWIDTH 7 0
BBX 3 10 2 0
VVECTOR 4 13
SWIDTH1 0 -1200
DWIDTH1 0 -16
BITMAP 
40
40
40
40
40
40
40
40
E0
40
ENDCHAR
STARTCHAR arrowright
ENCODING 26
SWIDTH 825 0
DWIDTH 11 0
BBX 10 3 1 3
VVECTOR 7 13
SWIDTH1 0 -1200
DWIDTH1 0 -16
BITMAP 
0080
FFC0
0080
ENDCHAR
STARTCHAR arrowleft
ENCODING 27
SWIDTH 825 0
DWIDTH 11 0
BBX 9 3 1 3
VVECTOR 6 13
SWIDTH1 0 -1200
DWIDTH1 0 -16
BITMAP 
4000
FF80
4000
ENDCHAR
STARTCHAR orthogonal
ENCODING 28
SWIDTH 525 0
DWIDTH 7 0
BBX 6 5 1 0
VVECTOR 5 13
SWIDTH1 0 -1200
DWIDTH1 0 -16
BITMAP 
80
80
80
80
FC
ENDCHAR
STARTCHAR arrowboth
ENCODING 29
SWIDTH 750 0
DWIDTH 10 0
BBX 8 3 1 3
VVECTOR 5 13
SWIDTH1 0 -1200
DWIDTH1 0 -16
BITMAP 
42
FF
42
ENDCHAR
STARTCHAR triagup
ENCODING 30
SWIDTH 675 0
DWIDTH 9 0
BBX 5 6 2 2
VVECTOR 5 13
SWIDTH1 0 -1200
DWIDTH1 0 -16
BITMAP 
20
20
70
70
F8
F8
ENDCHAR
STARTCHAR triagdn
ENCODING 31
SWIDTH 675 0
DWIDTH 9 0
BBX 5 6 2 2
VVECTOR 5 13
SWIDTH1 0 -1200
DWIDTH1 0 -16
BITMAP 
F8
F8
70
70
20
20
ENDCHAR
STARTCHAR space
ENCODING 32
SWIDTH 225 0
DWIDTH 3 0
BBX 0 0 3 13
VVECTOR 5 13
SWIDTH1 0 -1200
DWIDTH1 0 -16
BITMAP 
ENDCHAR
STARTCHAR exclam
ENCODING 33
SWIDTH 225 0
DWIDTH 3 0
BBX 1 10 1 0
VVECTOR 2 13
SWIDTH1 0 -1200
DWIDTH1 0 -16
BITMAP 
80
80
80
80
80
80
80
00
00
80
ENDCHAR
STARTCHAR quotedbl
ENCODING 34
SWIDTH 375 0
DWIDTH 5 0
BBX 3 3 1 7
VVECTOR 3 13
SWIDTH1 0 -1200
DWIDTH1 0 -16
BITMAP 
A0
A0
A0
ENDCHAR
STARTCHAR numbersign
ENCODING 35
SWIDTH 525 0
DWIDTH 7 0
BBX 7 10 0 0
VVECTOR 4 13
SWIDTH1 0 -1200
DWIDTH1 0 -16
BITMAP 
14
14
14
7E
28
28
FC
50
50
50
ENDCHAR
STARTCHAR dollar
ENCODING 36
SWIDTH 450 0
DWIDTH 6 0
BBX 4 13 1 -2
VVECTOR 3 13
SWIDTH1 0 -1200
DWIDTH1 0 -16
BITMAP 
20
20
60
90
90
80
60
10
10
90
60
40
40
ENDCHAR
STARTCHAR percent
ENCODING 37
SWIDTH 900 0
DWIDTH 12 0
BBX 10 10 1 0
VVECTOR 6 13
SWIDTH1 0 -1200
DWIDTH1 0 -16
BITMAP 
6040
9080
9100
6200
0400
0800
1180
2240
4240
8180
ENDCHAR
STARTCHAR ampersand
ENCODING 38
SWIDTH 750 0
DWIDTH 10 0
BBX 8 10 1 0
VVECTOR 5 13
SWIDTH1 0 -1200
DWIDTH1 0 -16
BITMAP 
20
50
50
50
27
52
8A
84
8A
71
ENDCHAR
STARTCHAR quotesingle
ENCODING 39
SWIDTH 225 0
DWIDTH 3 0
BBX 1 3 1 7
VVECTOR 2 13
SWIDTH1 0 -1200
DWIDTH1 0 -16
BITMAP 
80
80
80
ENDCHAR
STARTCHAR parenleft
ENCODING 40
SWIDTH 300 0
DWIDTH 4 0
BBX 2 13 1 -3
VVECTOR 2 13
SWIDTH1 0 -1200
DWIDTH1 0 -16
BITMAP 
40
40
80
80
80
80
80
80
80
80
80
40
40
ENDCHAR
STARTCHAR parenright
ENCODING 41
SWIDTH 300 0
DWIDTH 4 0
BBX 2 13 1 -3
VVECTOR 2 13
SWIDTH1 0 -1200
DWIDTH1 0 -16
BITMAP 
80
80
40
40
40
40
40
40
40
40
40
80
80
ENDCHAR
STARTCHAR asterisk
ENCODING 42
SWIDTH 525 0
DWIDTH 7 0
BBX 5 5 1 5
VVECTOR 4 13
SWIDTH1 0 -1200
DWIDTH1 0 -16
BITMAP 
20
A8
70
A8
20
ENDCHAR
STARTCHAR plus
ENCODING 43
SWIDTH 525 0
DWIDTH 7 0
BBX 5 5 1 2
VVECTOR 4 13
SWIDTH1 0 -1200
DWIDTH1 0 -16
BITMAP 
20
20
F8
20
20
ENDCHAR
STARTCHAR comma
ENCODING 44
SWIDTH 225 0
DWIDTH 3 0
BBX 2 3 0 -2
VVECTOR 1 13
SWIDTH1 0 -1200
DWIDTH1 0 -16
BITMAP 
40
40
80
ENDCHAR
STARTCHAR hyphen
ENCODING 45
SWIDTH 300 0
DWIDTH 4 0
BBX 4 1 0 4
VVECTOR 2 13
SWIDTH1 0 -1200
DWIDTH1 0 -16
BITMAP 
F0
ENDCHAR
STARTCHAR period
ENCODING 46
SWIDTH 225 0
DWIDTH 3 0
BBX 1 1 1 0
VVECTOR 2 13
SWIDTH1 0 -1200
DWIDTH1 0 -16
BITMAP 
80
ENDCHAR
STARTCHAR slash
ENCODING 47
SWIDTH 300 0
DWIDTH 4 0
BBX 4 12 0 -2
VVECTOR 2 13
SWIDTH1 0 -1200
DWIDTH1 0 -16
BITMAP 
10
10
10
20
20
20
40
40
40
80
80
80
ENDCHAR
STARTCHAR zero
ENCODING 48
SWIDTH 450 0
DWIDTH 6 0
BBX 4 10 1 0
VVECTOR 3 13
SWIDTH1 0 -1200
DWIDTH1 0 -16
BITMAP 
60
90
90
90
90
90
90
90
90
60
ENDCHAR
STARTCHAR one
ENCODING 49
SWIDTH 450 0
DWIDTH 6 0
BBX 3 10 2 0
VVECTOR 4 13
SWIDTH1 0 -1200
DWIDTH1 0 -16
BITMAP 
40
C0
40
40
40
40
40
40
40
E0
ENDCHAR
STARTCHAR two
ENCODING 50
SWIDTH 450 0
DWIDTH 6 0
BBX 4 10 1 0
VVECTOR 3 13
SWIDTH1 0 -1200
DWIDTH1 0 -16
BITMAP 
60
90
10
10
20
20
40
40
90
F0
ENDCHAR
STARTCHAR three
ENCODING 51
SWIDTH 450 0
DWIDTH 6 0
BBX 4 10 1 0
VVECTOR 3 13
SWIDTH1 0 -1200
DWIDTH1 0 -16
BITMAP 
60
90
10
10
60
10
10
10
90
60
ENDCHAR
STARTCHAR four
ENCODING 52
SWIDTH 450 0
DWIDTH 6 0
BBX 4 10 1 0
VVECTOR 3 13
SWIDTH1 0 -1200
DWIDTH1 0 -16
BITMAP 
10
30
30
50
50
90
F0
10
10
10
ENDCHAR
STARTCHAR five
ENCODING 53
SWIDTH 450 0
DWIDTH 6 0
BBX 4 10 1 0
VVECTOR 3 13
SWIDTH1 0 -1200
DWIDTH1 0 -16
BITMAP 
F0
80
80
80
E0
10
10
10
90
60
ENDCHAR
STARTCHAR six
ENCODING 54
SWIDTH 450 0
DWIDTH 6 0
BBX 4 10 1 0
VVECTOR 3 13
SWIDTH1 0 -1200
DWIDTH1 0 -16
BITMAP 
30
40
80
80
E0
90
90
90
90
60
ENDCHAR
STARTCHAR seven
ENCODING 55
SWIDTH 450 0
DWIDTH 6 0
BBX 4 10 1 0
VVECTOR 3 13
SWIDTH1 0 -1200
DWIDTH1 0 -16
BITMAP 
F0
90
10
20
20
20
40
40
40
40
ENDCHAR
STARTCHAR eight
ENCODING 56
SWIDTH 450 0
DWIDTH 6 0
BBX 4 10 1 0
VVECTOR 3 13
SWIDTH1 0 -1200
DWIDTH1 0 -16
BITMAP 
60
90
90
90
60
90
90
90
90
60
ENDCHAR
STARTCHAR nine
ENCODING 57
SWIDTH 450 0
DWIDTH 6 0
BBX 4 10 1 0
VVECTOR 3 13
SWIDTH1 0 -1200
DWIDTH1 0 -16
BITMAP 
60
90
90
90
90
70
10
10
20
C0
ENDCHAR
STARTCHAR colon
ENCODING 58
SWIDTH 225 0
DWIDTH 3 0
BBX 1 6 1 0
VVECTOR 2 13
SWIDTH1 0 -1200
DWIDTH1 0 -16
BITMAP 
80
00
00
00
00
80
ENDCHAR
STARTCHAR semicolon
ENCODING 59
SWIDTH 225 0
DWIDTH 3 0
BBX 2 8 0 -2
VVECTOR 1 13
SWIDTH1 0 -1200
DWIDTH1 0 -16
BITMAP 
40
00
00
00
00
40
40
80
ENDCHAR
STARTCHAR less
ENCODING 60
SWIDTH 525 0
DWIDTH 7 0
BBX 5 9 1 0
VVECTOR 4 13
SWIDTH1 0 -1200
DWIDTH1 0 -16
BITMAP 
08
10
20
40
80
40
20
10
08
ENDCHAR
STARTCHAR equal
ENCODING 61
SWIDTH 525 0
DWIDTH 7 0
BBX 5 4 1 3
VVECTOR 4 13
SWIDTH1 0 -1200
DWIDTH1 0 -16
BITMAP 
F8
00
00
F8
ENDCHAR
STARTCHAR greater
ENCODING 62
SWIDTH 525 0
DWIDTH 7 0
BBX 5 9 1 0
VVECTOR 4 13
SWIDTH1 0 -1200
DWIDTH1 0 -16
BITMAP 
80
40
20
10
08
10
20
40
80
ENDCHAR
STARTCHAR question
ENCODING 63
SWIDTH 450 0
DWIDTH 6 0
BBX 4 10 1 0
VVECTOR 3 13
SWIDTH1 0 -1200
DWIDTH1 0 -16
BITMAP 
60
90
10
10
20
40
40
00
00
40
ENDCHAR
STARTCHAR at
ENCODING 64
SWIDTH 900 0
DWIDTH 12 0
BBX 10 10 1 0
VVECTOR 6 13
SWIDTH1 0 -1200
DWIDTH1 0 -16
BITMAP 
3F00
4080
8E40
9240
9240
9240
9240
8E40
4180
3800
ENDCHAR
STARTCHAR A
ENCODING 65
SWIDTH 675 0
DWIDTH 9 0
BBX 9 10 0 0
VVECTOR 5 13
SWIDTH1 0 -1200
DWIDTH1 0 -16
BITMAP 
0800
0800
1400
1400
2200
2200
3E00
4100
4100
E380
ENDCHAR
STARTCHAR B
ENCODING 66
SWIDTH 675 0
DWIDTH 9 0
BBX 7 10 1 0
VVECTOR 5 13
SWIDTH1 0 -1200
DWIDTH1 0 -16
BITMAP 
FC
42
42
42
7C
42
42
42
42
FC
ENDCHAR
STARTCHAR C
ENCODING 67
SWIDTH 675 0
DWIDTH 9 0
BBX 8 10 1 0
VVECTOR 6 13
SWIDTH1 0 -1200
DWIDTH1 0 -16
BITMAP 
3D
43
81
80
80
80
80
81
42
3C
ENDCHAR
STARTCHAR D
ENCODING 68
SWIDTH 750 0
DWIDTH 10 0
BBX 8 10 1 0
VVECTOR 5 13
SWIDTH1 0 -1200
DWIDTH1 0 -16
BITMAP 
F8
46
42
41
41
41
41
42
46
F8
ENDCHAR
STARTCHAR E
ENCODING 69
SWIDTH 600 0
DWIDTH 8 0
BBX 6 10 1 0
VVECTOR 4 13
SWIDTH1 0 -1200
DWIDTH1 0 -16
BITMAP 
FC
44
40
48
78
48
40
40
44
FC
ENDCHAR
STARTCHAR F
ENCODING 70
SWIDTH 525 0
DWIDTH 7 0
BBX 6 10 1 0
VVECTOR 5 13
SWIDTH1 0 -1200
DWIDTH1 0 -16
BITMAP 
FC
44
40
48
78
48
40
40
40
E0
ENDCHAR
STARTCHAR G
ENCODING 71
SWIDTH 750 0
DWIDTH 10 0
BBX 9 10 1 0
VVECTOR 6 13
SWIDTH1 0 -1200
DWIDTH1 0 -16
BITMAP 
3D00
4300
8100
8000
8000
8380
8100
8100
4100
3E00
ENDCHAR
STARTCHAR H
ENCODING 72
SWIDTH 750 0
DWIDTH 10 0
BBX 8 10 1 0
VVECTOR 5 13
SWIDTH1 0 -1200
DWIDTH1 0 -16
BITMAP 
E7
42
42
42
7E
42
42
42
42
E7
ENDCHAR
STARTCHAR I
ENCODING 73
SWIDTH 375 0
DWIDTH 5 0
BBX 3 10 1 0
VVECTOR 3 13
SWIDTH1 0 -1200
DWIDTH1 0 -16
BITMAP 
E0
40
40
40
40
40
40
40
40
E0
ENDCHAR
STARTCHAR J
ENCODING 74
SWIDTH 450 0
DWIDTH 6 0
BBX 5 10 0 0
VVECTOR 2 13
SWIDTH1 0 -1200
DWIDTH1 0 -16
BITMAP 
38
10
10
10
10
10
10
10
90
E0
ENDCHAR
STARTCHAR K
ENCODING 75
SWIDTH 675 0
DWIDTH 9 0
BBX 8 10 1 0
VVECTOR 6 13
SWIDTH1 0 -1200
DWIDTH1 0 -16
BITMAP 
EE
44
48
50
60
50
48
44
42
E7
ENDCHAR
STARTCHAR L
ENCODING 76
SWIDTH 600 0
DWIDTH 8 0
BBX 7 10 1 0
VVECTOR 5 13
SWIDTH1 0 -1200
DWIDTH1 0 -16
BITMAP 
E0
40
40
40
40
40
40
40
42
FE
ENDCHAR
STARTCHAR M
ENCODING 77
SWIDTH 825 0
DWIDTH 11 0
BBX 9 10 1 0
VVECTOR 6 13
SWIDTH1 0 -1200
DWIDTH1 0 -16
BITMAP 
C180
6300
6300
6300
5500
5500
5500
4900
4900
EB80
ENDCHAR
STARTCHAR N
ENCODING 78
SWIDTH 750 0
DWIDTH 10 0
BBX 8 10 1 0
VVECTOR 5 13
SWIDTH1 0 -1200
DWIDTH1 0 -16
BITMAP 
C7
62
62
52
52
4A
4A
46
46
E2
ENDCHAR
STARTCHAR O
ENCODING 79
SWIDTH 750 0
DWIDTH 10 0
BBX 8 10 1 0
VVECTOR 5 13
SWIDTH1 0 -1200
DWIDTH1 0 -16
BITMAP 
3C
42
81
81
81
81
81
81
42
3C
ENDCHAR
STARTCHAR P
ENCODING 80
SWIDTH 600 0
DWIDTH 8 0
BBX 6 10 1 0
VVECTOR 4 13
SWIDTH1 0 -1200
DWIDTH1 0 -16
BITMAP 
F8
44
44
44
44
78
40
40
40
E0
ENDCHAR
STARTCHAR Q
ENCODING 81
SWIDTH 750 0
DWIDTH 10 0
BBX 8 12 1 -2
VVECTOR 5 13
SWIDTH1 0 -1200
DWIDTH1 0 -16
BITMAP 
3C
42
81
81
81
81
81
81
42
3C
0C
06
ENDCHAR
STARTCHAR R
ENCODING 82
SWIDTH 675 0
DWIDTH 9 0
BBX 8 10 1 0
VVECTOR 6 13
SWIDTH1 0 -1200
DWIDTH1 0 -16
BITMAP 
F8
44
44
44
44
78
48
44
42
E3
ENDCHAR
STARTCHAR S
ENCODING 83
SWIDTH 525 0
DWIDTH 7 0
BBX 5 10 1 0
VVECTOR 4 13
SWIDTH1 0 -1200
DWIDTH1 0 -16
BITMAP 
68
98
88
80
60
10
08
88
C8
B0
ENDCHAR
STARTCHAR T
ENCODING 84
SWIDTH 675 0
DWIDTH 9 0
BBX 9 10 0 0
VVECTOR 5 13
SWIDTH1 0 -1200
DWIDTH1 0 -16
BITMAP 
FF80
8880
0800
0800
0800
0800
0800
0800
0800
1C00
ENDCHAR
STARTCHAR U
ENCODING 85
SWIDTH 750 0
DWIDTH 10 0
BBX 8 10 1 0
VVECTOR 5 13
SWIDTH1 0 -1200
DWIDTH1 0 -16
BITMAP 
E7
42
42
42
42
42
42
42
42
3C
ENDCHAR
STARTCHAR V
ENCODING 86
SWIDTH 675 0
DWIDTH 9 0
BBX 9 10 0 0
VVECTOR 5 13
SWIDTH1 0 -1200
DWIDTH1 0 -16
BITMAP 
E380
4100
4100
2200
2200
1400
1400
1400
0800
0800
ENDCHAR
STARTCHAR W
ENCODING 87
SWIDTH 975 0
DWIDTH 13 0
BBX 13 10 0 0
VVECTOR 7 13
SWIDTH1 0 -1200
DWIDTH1 0 -16
BITMAP 
EDB8
4510
4510
2220
2220
1540
1540
1540
0880
0880
ENDCHAR
STARTCHAR X
ENCODING 88
SWIDTH 750 0
DWIDTH 10 0
BBX 10 10 0 0
VVECTOR 5 13
SWIDTH1 0 -1200
DWIDTH1 0 -16
BITMAP 
E1C0
4080
2100
1200
0C00
0C00
1200
2100
4080
E1C0
ENDCHAR
STARTCHAR Y
ENCODING 89
SWIDTH 675 0
DWIDTH 9 0
BBX 9 10 0 0
VVECTOR 5 13
SWIDTH1 0 -1200
DWIDTH1 0 -16
BITMAP 
E380
4100
2200
2200
1400
0800
0800
0800
0800
1C00
ENDCHAR
STARTCHAR Z
ENCODING 90
SWIDTH 600 0
DWIDTH 8 0
BBX 8 10 0 0
VVECTOR 4 13
SWIDTH1 0 -1200
DWIDTH1 0 -16
BITMAP 
FF
82
04
04
08
10
20
20
41
FF
ENDCHAR
STARTCHAR bracketleft
ENCODING 91
SWIDTH 300 0
DWIDTH 4 0
BBX 2 13 1 -3
VVECTOR 2 13
SWIDTH1 0 -1200
DWIDTH1 0 -16
BITMAP 
C0
80
80
80
80
80
80
80
80
80
80
80
C0
ENDCHAR
STARTCHAR backslash
ENCODING 92
SWIDTH 300 0
DWIDTH 4 0
BBX 4 12 0 -2
VVECTOR 2 13
SWIDTH1 0 -1200
DWIDTH1 0 -16
BITMAP 
80
80
80
40
40
40
20
20
20
10
10
10
ENDCHAR
STARTCHAR bracketright
ENCODING 93
SWIDTH 300 0
DWIDTH 4 0
BBX 2 13 1 -3
VVECTOR 2 13
SWIDTH1 0 -1200
DWIDTH1 0 -16
BITMAP 
C0
40
40
40
40
40
40
40
40
40
40
40
C0
ENDCHAR
STARTCHAR asciicircum
ENCODING 94
SWIDTH 375 0
DWIDTH 5 0
BBX 5 3 0 10
VVECTOR 3 13
SWIDTH1 0 -1200
DWIDTH1 0 -16
BITMAP 
20
50
88
ENDCHAR
STARTCHAR underscore
ENCODING 95
SWIDTH 450 0
DWIDTH 6 0
BBX 6 1 0 -3
VVECTOR 3 13
SWIDTH1 0 -1200
DWIDTH1 0 -16
BITMAP 
FC
ENDCHAR
STARTCHAR grave
ENCODING 96
SWIDTH 300 0
DWIDTH 4 0
BBX 3 3 0 8
VVECTOR 1 13
SWIDTH1 0 -1200
DWIDTH1 0 -16
BITMAP 
80
40
20
ENDCHAR
STARTCHAR a
ENCODING 97
SWIDTH 450 0
DWIDTH 6 0
BBX 5 7 1 0
VVECTOR 4 13
SWIDTH1 0 -1200
DWIDTH1 0 -16
BITMAP 
60
10
70
90
90
90
68
ENDCHAR
STARTCHAR b
ENCODING 98
SWIDTH 525 0
DWIDTH 7 0
BBX 6 10 0 0
VVECTOR 3 13
SWIDTH1 0 -1200
DWIDTH1 0 -16
BITMAP 
C0
40
40
58
64
44
44
44
44
38
ENDCHAR
STARTCHAR c
ENCODING 99
SWIDTH 450 0
DWIDTH 6 0
BBX 5 7 1 0
VVECTOR 4 13
SWIDTH1 0 -1200
DWIDTH1 0 -16
BITMAP 
70
88
80
80
80
88
70
ENDCHAR
STARTCHAR d
ENCODING 100
SWIDTH 525 0
DWIDTH 7 0
BBX 5 10 1 0
VVECTOR 4 13
SWIDTH1 0 -1200
DWIDTH1 0 -16
BITMAP 
18
08
08
78
88
88
88
88
88
78
ENDCHAR
STARTCHAR e
ENCODING 101
SWIDTH 525 0
DWIDTH 7 0
BBX 5 7 1 0
VVECTOR 4 13
SWIDTH1 0 -1200
DWIDTH1 0 -16
BITMAP 
70
88
88
F8
80
88
70
ENDCHAR
STARTCHAR f
ENCODING 102
SWIDTH 300 0
DWIDTH 4 0
BBX 4 10 0 0
VVECTOR 2 13
SWIDTH1 0 -1200
DWIDTH1 0 -16
BITMAP 
30
40
40
E0
40
40
40
40
40
60
ENDCHAR
STARTCHAR g
ENCODING 103
SWIDTH 525 0
DWIDTH 7 0
BBX 6 10 1 -3
VVECTOR 5 13
SWIDTH1 0 -1200
DWIDTH1 0 -16
BITMAP 
7C
88
88
88
70
80
78
84
84
78
ENDCHAR
STARTCHAR h
ENCODING 104
SWIDTH 525 0
DWIDTH 7 0
BBX 7 10 0 0
VVECTOR 4 13
SWIDTH1 0 -1200
DWIDTH1 0 -16
BITMAP 
C0
40
40
58
64
44
44
44
44
66
ENDCHAR
STARTCHAR i
ENCODING 105
SWIDTH 225 0
DWIDTH 3 0
BBX 3 10 0 0
VVECTOR 2 13
SWIDTH1 0 -1200
DWIDTH1 0 -16
BITMAP 
40
00
00
C0
40
40
40
40
40
60
ENDCHAR
STARTCHAR j
ENCODING 106
SWIDTH 225 0
DWIDTH 3 0
BBX 2 13 0 -3
VVECTOR 1 13
SWIDTH1 0 -1200
DWIDTH1 0 -16
BITMAP 
40
00
00
C0
40
40
40
40
40
40
40
40
80
ENDCHAR
STARTCHAR k
ENCODING 107
SWIDTH 525 0
DWIDTH 7 0
BBX 7 10 0 0
VVECTOR 4 13
SWIDTH1 0 -1200
DWIDTH1 0 -16
BITMAP 
C0
40
40
4C
48
50
70
48
44
66
ENDCHAR
STARTCHAR l
ENCODING 108
SWIDTH 225 0
DWIDTH 3 0
BBX 3 10 0 0
VVECTOR 2 13
SWIDTH1 0 -1200
DWIDTH1 0 -16
BITMAP 
C0
40
40
40
40
40
40
40
40
60
ENDCHAR
STARTCHAR m
ENCODING 109
SWIDTH 675 0
DWIDTH 9 0
BBX 9 7 0 0
VVECTOR 5 13
SWIDTH1 0 -1200
DWIDTH1 0 -16
BITMAP 
D200
6D00
4900
4900
4900
4900
6D80
ENDCHAR
STARTCHAR n
ENCODING 110
SWIDTH 525 0
DWIDTH 7 0
BBX 7 7 0 0
VVECTOR 4 13
SWIDTH1 0 -1200
DWIDTH1 0 -16
BITMAP 
D8
64
44
44
44
44
66
ENDCHAR
STARTCHAR o
ENCODING 111
SWIDTH 525 0
DWIDTH 7 0
BBX 5 7 1 0
VVECTOR 4 13
SWIDTH1 0 -1200
DWIDTH1 0 -16
BITMAP 
70
88
88
88
88
88
70
ENDCHAR
STARTCHAR p
ENCODING 112
SWIDTH 525 0
DWIDTH 7 0
BBX 6 10 0 -3
VVECTOR 3 13
SWIDTH1 0 -1200
DWIDTH1 0 -16
BITMAP 
D8
64
44
44
44
44
78
40
40
E0
ENDCHAR
STARTCHAR q
ENCODING 113
SWIDTH 525 0
DWIDTH 7 0
BBX 6 10 1 -3
VVECTOR 5 13
SWIDTH1 0 -1200
DWIDTH1 0 -16
BITMAP 
78
88
88
88
88
88
78
08
08
1C
ENDCHAR
STARTCHAR r
ENCODING 114
SWIDTH 375 0
DWIDTH 5 0
BBX 4 7 0 0
VVECTOR 2 13
SWIDTH1 0 -1200
DWIDTH1 0 -16
BITMAP 
D0
60
40
40
40
40
60
ENDCHAR
STARTCHAR s
ENCODING 115
SWIDTH 375 0
DWIDTH 5 0
BBX 3 7 1 0
VVECTOR 3 13
SWIDTH1 0 -1200
DWIDTH1 0 -16
BITMAP 
60
80
80
40
20
20
C0
ENDCHAR
STARTCHAR t
ENCODING 116
SWIDTH 225 0
DWIDTH 3 0
BBX 3 9 0 0
VVECTOR 2 13
SWIDTH1 0 -1200
DWIDTH1 0 -16
BITMAP 
40
40
E0
40
40
40
40
40
20
ENDCHAR
STARTCHAR u
ENCODING 117
SWIDTH 525 0
DWIDTH 7 0
BBX 7 7 0 0
VVECTOR 4 13
SWIDTH1 0 -1200
DWIDTH1 0 -16
BITMAP 
CC
44
44
44
44
4C
36
ENDCHAR
STARTCHAR v
ENCODING 118
SWIDTH 525 0
DWIDTH 7 0
BBX 7 7 0 0
VVECTOR 4 13
SWIDTH1 0 -1200
DWIDTH1 0 -16
BITMAP 
EE
44
44
28
28
10
10
ENDCHAR
STARTCHAR w
ENCODING 119
SWIDTH 675 0
DWIDTH 9 0
BBX 9 7 0 0
VVECTOR 5 13
SWIDTH1 0 -1200
DWIDTH1 0 -16
BITMAP 
DD80
8880
8880
5500
5500
2200
2200
ENDCHAR
STARTCHAR x
ENCODING 120
SWIDTH 525 0
DWIDTH 7 0
BBX 7 7 0 0
VVECTOR 4 13
SWIDTH1 0 -1200
DWIDTH1 0 -16
BITMAP 
EE
44
28
10
28
44
EE
ENDCHAR
STARTCHAR y
ENCODING 121
SWIDTH 525 0
DWIDTH 7 0
BBX 7 10 0 -3
VVECTOR 4 13
SWIDTH1 0 -1200
DWIDTH1 0 -16
BITMAP 
EE
44
44
28
28
10
10
20
A0
C0
ENDCHAR
STARTCHAR z
ENCODING 122
SWIDTH 525 0
DWIDTH 7 0
BBX 5 7 1 0
VVECTOR 4 13
SWIDTH1 0 -1200
DWIDTH1 0 -16
BITMAP 
F8
88
10
20
40
88
F8
ENDCHAR
STARTCHAR braceleft
ENCODING 123
SWIDTH 375 0
DWIDTH 5 0
BBX 3 13 1 -3
VVECTOR 3 13
SWIDTH1 0 -1200
DWIDTH1 0 -16
BITMAP 
20
40
40
40
40
40
80
40
40
40
40
40
20
ENDCHAR
STARTCHAR bar
ENCODING 124
SWIDTH 225 0
DWIDTH 3 0
BBX 1 13 1 -3
VVECTOR 2 13
SWIDTH1 0 -1200
DWIDTH1 0 -16
BITMAP 
80
80
80
80
80
80
80
80
80
80
80
80
80
ENDCHAR
STARTCHAR braceright
ENCODING 125
SWIDTH 375 0
DWIDTH 5 0
BBX 3 13 1 -3
VVECTOR 3 13
SWIDTH1 0 -1200
DWIDTH1 0 -16
BITMAP 
80
40
40
40
40
40
20
40
40
40
40
40
80
ENDCHAR
STARTCHAR asciitilde
ENCODING 126
SWIDTH 450 0
DWIDTH 6 0
BBX 6 2 0 11
VVECTOR 3 13
SWIDTH1 0 -1200
DWIDTH1 0 -16
BITMAP 
64
98
ENDCHAR
STARTCHAR house
ENCODING 127
SWIDTH 675 0
DWIDTH 9 0
BBX 7 9 1 0
VVECTOR 5 13
SWIDTH1 0 -1200
DWIDTH1 0 -16
BITMAP 
10
28
44
82
82
82
82
82
FE
ENDCHAR
STARTCHAR Ccedilla
ENCODING 128
SWIDTH 675 0
DWIDTH 9 0
BBX 8 13 1 -3
VVECTOR 6 13
SWIDTH1 0 -1200
DWIDTH1 0 -16
BITMAP 
3D
43
81
80
80
80
80
81
42
3C
10
08
10
ENDCHAR
STARTCHAR udieresis
ENCODING 129
SWIDTH 525 0
DWIDTH 7 0
BBX 7 9 0 0
VVECTOR 4 13
SWIDTH1 0 -1200
DWIDTH1 0 -16
BITMAP 
44
00
CC
44
44
44
44
4C
36
ENDCHAR
STARTCHAR eacute
ENCODING 130
SWIDTH 525 0
DWIDTH 7 0
BBX 5 11 1 0
VVECTOR 4 13
SWIDTH1 0 -1200
DWIDTH1 0 -16
BITMAP 
10
20
40
00
70
88
F8
80
80
88
70
ENDCHAR
STARTCHAR acircumflex
ENCODING 131
SWIDTH 450 0
DWIDTH 6 0
BBX 5 11 1 0
VVECTOR 4 13
SWIDTH1 0 -1200
DWIDTH1 0 -16
BITMAP 
20
50
88
00
60
10
70
90
90
90
68
ENDCHAR
STARTCHAR adieresis
ENCODING 132
SWIDTH 450 0
DWIDTH 6 0
BBX 5 9 1 0
VVECTOR 4 13
SWIDTH1 0 -1200
DWIDTH1 0 -16
BITMAP 
90
00
60
10
70
90
90
90
68
ENDCHAR
STARTCHAR agrave
ENCODING 133
SWIDTH 450 0
DWIDTH 6 0
BBX 5 11 1 0
VVECTOR 4 13
SWIDTH1 0 -1200
DWIDTH1 0 -16
BITMAP 
80
40
20
00
60
10
70
90
90
90
68
ENDCHAR
STARTCHAR aring
ENCODING 134
SWIDTH 450 0
DWIDTH 6 0
BBX 5 12 1 0
VVECTOR 4 13
SWIDTH1 0 -1200
DWIDTH1 0 -16
BITMAP 
20
50
50
20
00
60
10
70
90
90
90
68
ENDCHAR
STARTCHAR ccedilla
ENCODING 135
SWIDTH 450 0
DWIDTH 6 0
BBX 5 10 1 -3
VVECTOR 4 13
SWIDTH1 0 -1200
DWIDTH1 0 -16
BITMAP 
70
88
80
80
80
88
70
20
10
20
ENDCHAR
STARTCHAR ecircumflex
ENCODING 136
SWIDTH 525 0
DWIDTH 7 0
BBX 5 11 1 0
VVECTOR 4 13
SWIDTH1 0 -1200
DWIDTH1 0 -16
BITMAP 
20
50
88
00
70
88
F8
80
80
88
70
ENDCHAR
STARTCHAR edieresis
ENCODING 137
SWIDTH 525 0
DWIDTH 7 0
BBX 5 9 1 0
VVECTOR 4 13
SWIDTH1 0 -1200
DWIDTH1 0 -16
BITMAP 
88
00
70
88
F8
80
80
88
70
ENDCHAR
STARTCHAR egrave
ENCODING 138
SWIDTH 525 0
DWIDTH 7 0
BBX 5 11 1 0
VVECTOR 4 13
SWIDTH1 0 -1200
DWIDTH1 0 -16
BITMAP 
40
20
10
00
70
88
F8
80
80
88
70
ENDCHAR
STARTCHAR idieresis
ENCODING 139
SWIDTH 225 0
DWIDTH 3 0
BBX 3 9 0 0
VVECTOR 2 13
SWIDTH1 0 -1200
DWIDTH1 0 -16
BITMAP 
A0
00
C0
40
40
40
40
40
60
ENDCHAR
STARTCHAR icircumflex
ENCODING 140
SWIDTH 225 0
DWIDTH 3 0
BBX 3 10 0 0
VVECTOR 2 13
SWIDTH1 0 -1200
DWIDTH1 0 -16
BITMAP 
40
A0
00
C0
40
40
40
40
40
60
ENDCHAR
STARTCHAR igrave
ENCODING 141
SWIDTH 225 0
DWIDTH 3 0
BBX 3 10 0 0
VVECTOR 2 13
SWIDTH1 0 -1200
DWIDTH1 0 -16
BITMAP 
80
40
00
C0
40
40
40
40
40
60
ENDCHAR
STARTCHAR Adieresis
ENCODING 142
SWIDTH 675 0
DWIDTH 9 0
BBX 9 12 0 0
VVECTOR 5 13
SWIDTH1 0 -1200
DWIDTH1 0 -16
BITMAP 
2200
0000
0800
0800
1400
1400
2200
2200
3E00
4100
4100
E380
ENDCHAR
STARTCHAR Aring
ENCODING 143
SWIDTH 675 0
DWIDTH 9 0
BBX 9 13 0 0
VVECTOR 5 13
SWIDTH1 0 -1200
DWIDTH1 0 -16
BITMAP 
0800
1400
0800
0000
0800
1400
1400
2200
2200
3E00
4100
4100
E380
ENDCHAR
STARTCHAR Eacute
ENCODING 144
SWIDTH 600 0
DWIDTH 8 0
BBX 6 13 1 0
VVECTOR 4 13
SWIDTH1 0 -1200
DWIDTH1 0 -16
BITMAP 
08
10
20
FC
44
40
48
78
48
40
40
44
FC
ENDCHAR
STARTCHAR ae
ENCODING 145
SWIDTH 675 0
DWIDTH 9 0
BBX 7 7 1 0
VVECTOR 5 13
SWIDTH1 0 -1200
DWIDTH1 0 -16
BITMAP 
6C
12
7E
90
90
92
6C
ENDCHAR
STARTCHAR AE
ENCODING 146
SWIDTH 900 0
DWIDTH 12 0
BBX 11 10 0 0
VVECTOR 5 13
SWIDTH1 0 -1200
DWIDTH1 0 -16
BITMAP 
07E0
0A20
0A00
1240
13C0
2240
3E00
4200
4220
E7E0
ENDCHAR
STARTCHAR ocircumflex
ENCODING 147
SWIDTH 525 0
DWIDTH 7 0
BBX 5 11 1 0
VVECTOR 4 13
SWIDTH1 0 -1200
DWIDTH1 0 -16
BITMAP 
20
50
88
00
70
88
88
88
88
88
70
ENDCHAR
STARTCHAR odieresis
ENCODING 148
SWIDTH 525 0
DWIDTH 7 0
BBX 5 9 1 0
VVECTOR 4 13
SWIDTH1 0 -1200
DWIDTH1 0 -16
BITMAP 
88
00
70
88
88
88
88
88
70
ENDCHAR
STARTCHAR ograve
ENCODING 149
SWIDTH 525 0
DWIDTH 7 0
BBX 5 11 1 0
VVECTOR 4 13
SWIDTH1 0 -1200
DWIDTH1 0 -16
BITMAP 
40
20
10
00
70
88
88
88
88
88
70
ENDCHAR
STARTCHAR ucircumflex
ENCODING 150
SWIDTH 525 0
DWIDTH 7 0
BBX 7 11 0 0
VVECTOR 4 13
SWIDTH1 0 -1200
DWIDTH1 0 -16
BITMAP 
10
28
44
00
CC
44
44
44
44
4C
36
ENDCHAR
STARTCHAR ugrave
ENCODING 151
SWIDTH 525 0
DWIDTH 7 0
BBX 7 11 0 0
VVECTOR 4 13
SWIDTH1 0 -1200
DWIDTH1 0 -16
BITMAP 
20
10
08
00
CC
44
44
44
44
4C
36
ENDCHAR
STARTCHAR ydieresis
ENCODING 152
SWIDTH 525 0
DWIDTH 7 0
BBX 7 12 0 -3
VVECTOR 4 13
SWIDTH1 0 -1200
DWIDTH1 0 -16
BITMAP 
44
00
EE
44
44
28
28
10
10
20
A0
C0
ENDCHAR
STARTCHAR Odieresis
ENCODING 153
SWIDTH 750 0
DWIDTH 10 0
BBX 8 12 1 0
VVECTOR 5 13
SWIDTH1 0 -1200
DWIDTH1 0 -16
BITMAP 
24
00
3C
42
81
81
81
81
81
81
42
3C
ENDCHAR
STARTCHAR Udieresis
ENCODING 154
SWIDTH 750 0
DWIDTH 10 0
BBX 8 12 1 0
VVECTOR 5 13
SWIDTH1 0 -1200
DWIDTH1 0 -16
BITMAP 
24
00
E7
42
42
42
42
42
42
42
42
3C
ENDCHAR
STARTCHAR oslash
ENCODING 155
SWIDTH 525 0
DWIDTH 7 0
BBX 5 7 1 0
VVECTOR 4 13
SWIDTH1 0 -1200
DWIDTH1 0 -16
BITMAP 
78
98
A8
A8
A8
C8
F0
ENDCHAR
STARTCHAR sterling
ENCODING 156
SWIDTH 450 0
DWIDTH 6 0
BBX 5 10 1 0
VVECTOR 4 13
SWIDTH1 0 -1200
DWIDTH1 0 -16
BITMAP 
60
90
80
80
40
F0
40
40
48
B0
ENDCHAR
STARTCHAR Oslash
ENCODING 157
SWIDTH 750 0
DWIDTH 10 0
BBX 10 10 0 0
VVECTOR 5 13
SWIDTH1 0 -1200
DWIDTH1 0 -16
BITMAP 
1E40
2180
4180
4280
4480
4880
5080
6080
6100
9E00
ENDCHAR
STARTCHAR multiply
ENCODING 158
SWIDTH 525 0
DWIDTH 7 0
BBX 5 5 1 3
VVECTOR 4 13
SWIDTH1 0 -1200
DWIDTH1 0 -16
BITMAP 
88
50
20
50
88
ENDCHAR
STARTCHAR florin
ENCODING 159
SWIDTH 525 0
DWIDTH 7 0
BBX 6 13 1 -2
VVECTOR 5 13
SWIDTH1 0 -1200
DWIDTH1 0 -16
BITMAP 
0C
14
10
10
7C
10
10
30
20
20
20
A0
C0
ENDCHAR
STARTCHAR aacute
ENCODING 160
SWIDTH 450 0
DWIDTH 6 0
BBX 5 11 1 0
VVECTOR 4 13
SWIDTH1 0 -1200
DWIDTH1 0 -16
BITMAP 
10
20
40
00
60
10
70
90
90
90
68
ENDCHAR
STARTCHAR iacute
ENCODING 161
SWIDTH 225 0
DWIDTH 3 0
BBX 3 10 0 0
VVECTOR 2 13
SWIDTH1 0 -1200
DWIDTH1 0 -16
BITMAP 
20
40
00
C0
40
40
40
40
40
60
ENDCHAR
STARTCHAR oacute
ENCODING 162
SWIDTH 525 0
DWIDTH 7 0
BBX 5 11 1 0
VVECTOR 4 13
SWIDTH1 0 -1200
DWIDTH1 0 -16
BITMAP 
10
20
40
00
70
88
88
88
88
88
70
ENDCHAR
STARTCHAR uacute
ENCODING 163
SWIDTH 525 0
DWIDTH 7 0
BBX 7 11 0 0
VVECTOR 4 13
SWIDTH1 0 -1200
DWIDTH1 0 -16
BITMAP 
08
10
20
00
CC
44
44
44
44
4C
36
ENDCHAR
STARTCHAR ntilde
ENCODING 164
SWIDTH 525 0
DWIDTH 7 0
BBX 7 10 0 0
VVECTOR 4 13
SWIDTH1 0 -1200
DWIDTH1 0 -16
BITMAP 
34
58
00
D8
64
44
44
44
44
66
ENDCHAR
STARTCHAR Ntilde
ENCODING 165
SWIDTH 750 0
DWIDTH 10 0
BBX 8 13 1 0
VVECTOR 5 13
SWIDTH1 0 -1200
DWIDTH1 0 -16
BITMAP 
32
4C
00
C7
62
62
52
52
4A
4A
46
46
E2
ENDCHAR
STARTCHAR ordfeminine
ENCODING 166
SWIDTH 300 0
DWIDTH 4 0
BBX 2 6 1 4
VVECTOR 2 13
SWIDTH1 0 -1200
DWIDTH1 0 -16
BITMAP 
80
40
C0
C0
00
C0
ENDCHAR
STARTCHAR ordmasculine
ENCODING 167
SWIDTH 300 0
DWIDTH 4 0
BBX 2 6 1 4
VVECTOR 2 13
SWIDTH1 0 -1200
DWIDTH1 0 -16
BITMAP 
C0
C0
C0
C0
00
C0
ENDCHAR
STARTCHAR questiondown
ENCODING 168
SWIDTH 450 0
DWIDTH 6 0
BBX 4 10 1 0
VVECTOR 3 13
SWIDTH1 0 -1200
DWIDTH1 0 -16
BITMAP 
20
00
00
20
20
40
80
80
90
60
ENDCHAR
STARTCHAR registered
ENCODING 169
SWIDTH 825 0
DWIDTH 11 0
BBX 9 10 1 0
VVECTOR 6 13
SWIDTH1 0 -1200
DWIDTH1 0 -16
BITMAP 
3E00
4100
BC80
A280
A280
BC80
A480
A280
4100
3E00
ENDCHAR
STARTCHAR logicalnot
ENCODING 170
SWIDTH 525 0
DWIDTH 7 0
BBX 5 2 1 4
VVECTOR 4 13
SWIDTH1 0 -1200
DWIDTH1 0 -16
BITMAP 
F8
08
ENDCHAR
STARTCHAR onehalf
ENCODING 171
SWIDTH 675 0
DWIDTH 9 0
BBX 9 10 0 0
VVECTOR 5 13
SWIDTH1 0 -1200
DWIDTH1 0 -16
BITMAP 
4080
C100
4200
4400
4900
EA80
1080
2100
4200
8380
ENDCHAR
STARTCHAR onequarter
ENCODING 172
SWIDTH 675 0
DWIDTH 9 0
BBX 9 10 0 0
VVECTOR 5 13
SWIDTH1 0 -1200
DWIDTH1 0 -16
BITMAP 
4080
C100
4200
4400
4880
E980
1280
2280
4380
8080
ENDCHAR
STARTCHAR exclamdown
ENCODING 173
SWIDTH 225 0
DWIDTH 3 0
BBX 1 10 1 0
VVECTOR 2 13
SWIDTH1 0 -1200
DWIDTH1 0 -16
BITMAP 
80
00
00
80
80
80
80
80
80
80
ENDCHAR
STARTCHAR guillemotleft
ENCODING 174
SWIDTH 525 0
DWIDTH 7 0
BBX 5 5 1 0
VVECTOR 4 13
SWIDTH1 0 -1200
DWIDTH1 0 -16
BITMAP 
28
50
A0
50
28
ENDCHAR
STARTCHAR guillemotright
ENCODING 175
SWIDTH 525 0
DWIDTH 7 0
BBX 5 5 1 0
VVECTOR 4 13
SWIDTH1 0 -1200
DWIDTH1 0 -16
BITMAP 
A0
50
28
50
A0
ENDCHAR
STARTCHAR ltshade
ENCODING 176
SWIDTH 600 0
DWIDTH 8 0
BBX 8 14 0 -1
VVECTOR 4 13
SWIDTH1 0 -1200
DWIDTH1 0 -16
BITMAP 
DB
DB
00
00
DB
DB
00
00
DB
DB
00
00
DB
DB
ENDCHAR
STARTCHAR shade
ENCODING 177
SWIDTH 600 0
DWIDTH 8 0
BBX 8 16 0 -3
VVECTOR 4 13
SWIDTH1 0 -1200
DWIDTH1 0 -16
BITMAP 
C3
C3
18
18
C3
C3
18
18
C3
C3
18
18
C3
C3
18
18
ENDCHAR
STARTCHAR dkshade
ENCODING 178
SWIDTH 600 0
DWIDTH 8 0
BBX 8 16 0 -3
VVECTOR 4 13
SWIDTH1 0 -1200
DWIDTH1 0 -16
BITMAP 
CC
CC
33
33
CC
CC
33
33
CC
CC
33
33
CC
CC
33
33
ENDCHAR
STARTCHAR SF110000
ENCODING 179
SWIDTH 600 0
DWIDTH 8 0
BBX 1 16 3 -3
VVECTOR 3 13
SWIDTH1 0 -1200
DWIDTH1 0 -16
BITMAP 
80
80
80
80
80
80
80
80
80
80
80
80
80
80
80
80
ENDCHAR
STARTCHAR SF090000
ENCODING 180
SWIDTH 600 0
DWIDTH 8 0
BBX 4 16 0 -3
VVECTOR 0 13
SWIDTH1 0 -1200
DWIDTH1 0 -16
BITMAP 
10
10
10
10
10
10
10
F0
10
10
10
10
10
10
10
10
ENDCHAR
STARTCHAR Aacute
ENCODING 181
SWIDTH 675 0
DWIDTH 9 0
BBX 9 13 0 0
VVECTOR 5 13
SWIDTH1 0 -1200
DWIDTH1 0 -16
BITMAP 
0400
0800
1000
0800
0800
1400
1400
2200
2200
3E00
4100
4100
E380
ENDCHAR
STARTCHAR Acircumflex
ENCODING 182
SWIDTH 675 0
DWIDTH 9 0
BBX 9 13 0 0
VVECTOR 5 13
SWIDTH1 0 -1200
DWIDTH1 0 -16
BITMAP 
0800
1400
2200
0800
0800
1400
1400
2200
2200
3E00
4100
4100
E380
ENDCHAR
STARTCHAR Agrave
ENCODING 183
SWIDTH 675 0
DWIDTH 9 0
BBX 9 13 0 0
VVECTOR 5 13
SWIDTH1 0 -1200
DWIDTH1 0 -16
BITMAP 
1000
0800
0400
0800
0800
1400
1400
2200
2200
3E00
4100
4100
E380
ENDCHAR
STARTCHAR copyright
ENCODING 184
SWIDTH 825 0
DWIDTH 11 0
BBX 9 10 1 0
VVECTOR 6 13
SWIDTH1 0 -1200
DWIDTH1 0 -16
BITMAP 
3E00
4100
9C80
A280
A080
A080
A280
9C80
4100
3E00
ENDCHAR
STARTCHAR SF230000
ENCODING 185
SWIDTH 600 0
DWIDTH 8 0
BBX 5 16 0 -3
VVECTOR 1 13
SWIDTH1 0 -1200
DWIDTH1 0 -16
BITMAP 
28
28
28
28
28
28
E8
08
E8
28
28
28
28
28
28
28
ENDCHAR
STARTCHAR SF240000
ENCODING 186
SWIDTH 600 0
DWIDTH 8 0
BBX 3 16 2 -3
VVECTOR 3 13
SWIDTH1 0 -1200
DWIDTH1 0 -16
BITMAP 
A0
A0
A0
A0
A0
A0
A0
A0
A0
A0
A0
A0
A0
A0
A0
A0
ENDCHAR
STARTCHAR SF250000
ENCODING 187
SWIDTH 600 0
DWIDTH 8 0
BBX 5 10 0 -3
VVECTOR 1 13
SWIDTH1 0 -1200
DWIDTH1 0 -16
BITMAP 
F8
08
E8
28
28
28
28
28
28
28
ENDCHAR
STARTCHAR SF260000
ENCODING 188
SWIDTH 600 0
DWIDTH 8 0
BBX 5 9 0 4
VVECTOR 1 13
SWIDTH1 0 -1200
DWIDTH1 0 -16
BITMAP 
28
28
28
28
28
28
E8
08
F8
ENDCHAR
STARTCHAR cent
ENCODING 189
SWIDTH 450 0
DWIDTH 6 0
BBX 5 8 1 -1
VVECTOR 4 13
SWIDTH1 0 -1200
DWIDTH1 0 -16
BITMAP 
08
70
98
A0
A0
C8
70
80
ENDCHAR
STARTCHAR yen
ENCODING 190
SWIDTH 450 0
DWIDTH 6 0
BBX 6 10 0 0
VVECTOR 3 13
SWIDTH1 0 -1200
DWIDTH1 0 -16
BITMAP 
DC
88
D8
50
F8
20
F8
20
20
70
ENDCHAR
STARTCHAR SF030000
ENCODING 191
SWIDTH 600 0
DWIDTH 8 0
BBX 4 9 0 -3
VVECTOR 0 13
SWIDTH1 0 -1200
DWIDTH1 0 -16
BITMAP 
F0
10
10
10
10
10
10
10
10
ENDCHAR
STARTCHAR SF020000
ENCODING 192
SWIDTH 600 0
DWIDTH 8 0
BBX 5 8 3 5
VVECTOR 7 13
SWIDTH1 0 -1200
DWIDTH1 0 -16
BITMAP 
80
80
80
80
80
80
80
F8
ENDCHAR
STARTCHAR SF070000
ENCODING 193
SWIDTH 600 0
DWIDTH 8 0
BBX 8 8 0 5
VVECTOR 4 13
SWIDTH1 0 -1200
DWIDTH1 0 -16
BITMAP 
10
10
10
10
10
10
10
FF
ENDCHAR
STARTCHAR SF060000
ENCODING 194
SWIDTH 600 0
DWIDTH 8 0
BBX 8 9 0 -3
VVECTOR 4 13
SWIDTH1 0 -1200
DWIDTH1 0 -16
BITMAP 
FF
10
10
10
10
10
10
10
10
ENDCHAR
STARTCHAR SF080000
ENCODING 195
SWIDTH 600 0
DWIDTH 8 0
BBX 5 16 3 -3
VVECTOR 7 13
SWIDTH1 0 -1200
DWIDTH1 0 -16
BITMAP 
80
80
80
80
80
80
80
F8
80
80
80
80
80
80
80
80
ENDCHAR
STARTCHAR SF100000
ENCODING 196
SWIDTH 600 0
DWIDTH 8 0
BBX 8 1 0 5
VVECTOR 4 13
SWIDTH1 0 -1200
DWIDTH1 0 -16
BITMAP 
FF
ENDCHAR
STARTCHAR SF050000
ENCODING 197
SWIDTH 600 0
DWIDTH 8 0
BBX 8 16 0 -3
VVECTOR 4 13
SWIDTH1 0 -1200
DWIDTH1 0 -16
BITMAP 
10
10
10
10
10
10
10
FF
10
10
10
10
10
10
10
10
ENDCHAR
STARTCHAR atilde
ENCODING 198
SWIDTH 450 0
DWIDTH 6 0
BBX 5 10 1 0
VVECTOR 4 13
SWIDTH1 0 -1200
DWIDTH1 0 -16
BITMAP 
68
B0
00
60
10
70
90
90
90
68
ENDCHAR
STARTCHAR Atilde
ENCODING 199
SWIDTH 675 0
DWIDTH 9 0
BBX 9 13 0 0
VVECTOR 5 13
SWIDTH1 0 -1200
DWIDTH1 0 -16
BITMAP 
1A00
2C00
0000
0800
0800
1400
1400
2200
2200
3E00
4100
4100
E380
ENDCHAR
STARTCHAR SF380000
ENCODING 200
SWIDTH 600 0
DWIDTH 8 0
BBX 6 9 2 4
VVECTOR 6 13
SWIDTH1 0 -1200
DWIDTH1 0 -16
BITMAP 
A0
A0
A0
A0
A0
A0
BC
80
FC
ENDCHAR
STARTCHAR SF390000
ENCODING 201
SWIDTH 600 0
DWIDTH 8 0
BBX 6 10 2 -3
VVECTOR 6 13
SWIDTH1 0 -1200
DWIDTH1 0 -16
BITMAP 
FC
80
BC
A0
A0
A0
A0
A0
A0
A0
ENDCHAR
STARTCHAR SF400000
ENCODING 202
SWIDTH 600 0
DWIDTH 8 0
BBX 8 9 0 4
VVECTOR 4 13
SWIDTH1 0 -1200
DWIDTH1 0 -16
BITMAP 
28
28
28
28
28
28
EF
00
FF
ENDCHAR
STARTCHAR SF410000
ENCODING 203
SWIDTH 600 0
DWIDTH 8 0
BBX 8 10 0 -3
VVECTOR 4 13
SWIDTH1 0 -1200
DWIDTH1 0 -16
BITMAP 
FF
00
EF
28
28
28
28
28
28
28
ENDCHAR
STARTCHAR SF420000
ENCODING 204
SWIDTH 600 0
DWIDTH 8 0
BBX 6 16 2 -3
VVECTOR 6 13
SWIDTH1 0 -1200
DWIDTH1 0 -16
BITMAP 
A0
A0
A0
A0
A0
A0
BC
80
BC
A0
A0
A0
A0
A0
A0
A0
ENDCHAR
STARTCHAR SF430000
ENCODING 205
SWIDTH 600 0
DWIDTH 8 0
BBX 8 3 0 4
VVECTOR 4 13
SWIDTH1 0 -1200
DWIDTH1 0 -16
BITMAP 
FF
00
FF
ENDCHAR
STARTCHAR SF440000
ENCODING 206
SWIDTH 600 0
DWIDTH 8 0
BBX 8 16 0 -3
VVECTOR 4 13
SWIDTH1 0 -1200
DWIDTH1 0 -16
BITMAP 
28
28
28
28
28
28
EF
00
EF
28
28
28
28
28
28
28
ENDCHAR
STARTCHAR currency
ENCODING 207
SWIDTH 450 0
DWIDTH 6 0
BBX 6 4 0 6
VVECTOR 3 13
SWIDTH1 0 -1200
DWIDTH1 0 -16
BITMAP 
B4
48
48
B4
ENDCHAR
STARTCHAR eth
ENCODING 208
SWIDTH 525 0
DWIDTH 7 0
BBX 5 10 1 0
VVECTOR 4 13
SWIDTH1 0 -1200
DWIDTH1 0 -16
BITMAP 
A0
40
A0
10
78
88
88
88
88
70
ENDCHAR
STARTCHAR Eth
ENCODING 209
SWIDTH 750 0
DWIDTH 10 0
BBX 8 10 1 0
VVECTOR 5 13
SWIDTH1 0 -1200
DWIDTH1 0 -16
BITMAP 
F8
46
42
41
E1
41
41
42
46
F8
ENDCHAR
STARTCHAR Ecircumflex
ENCODING 210
SWIDTH 600 0
DWIDTH 8 0
BBX 6 13 1 0
VVECTOR 4 13
SWIDTH1 0 -1200
DWIDTH1 0 -16
BITMAP 
10
28
44
FC
44
40
48
78
48
40
40
44
FC
ENDCHAR
STARTCHAR Edieresis
ENCODING 211
SWIDTH 600 0
DWIDTH 8 0
BBX 6 12 1 0
VVECTOR 4 13
SWIDTH1 0 -1200
DWIDTH1 0 -16
BITMAP 
44
00
FC
44
40
48
78
48
40
40
44
FC
ENDCHAR
STARTCHAR Egrave
ENCODING 212
SWIDTH 600 0
DWIDTH 8 0
BBX 6 13 1 0
VVECTOR 4 13
SWIDTH1 0 -1200
DWIDTH1 0 -16
BITMAP 
20
10
08
FC
44
40
48
78
48
40
40
44
FC
ENDCHAR
STARTCHAR Euro
ENCODING 213
SWIDTH 225 0
DWIDTH 3 0
BBX 3 7 0 0
VVECTOR 2 13
SWIDTH1 0 -1200
DWIDTH1 0 -16
BITMAP 
C0
40
40
40
40
40
60
ENDCHAR
STARTCHAR Iacute
ENCODING 214
SWIDTH 375 0
DWIDTH 5 0
BBX 3 13 1 0
VVECTOR 3 13
SWIDTH1 0 -1200
DWIDTH1 0 -16
BITMAP 
20
40
80
E0
40
40
40
40
40
40
40
40
E0
ENDCHAR
STARTCHAR Icircumflex
ENCODING 215
SWIDTH 375 0
DWIDTH 5 0
BBX 5 13 0 0
VVECTOR 3 13
SWIDTH1 0 -1200
DWIDTH1 0 -16
BITMAP 
20
50
88
70
20
20
20
20
20
20
20
20
70
ENDCHAR
STARTCHAR Idieresis
ENCODING 216
SWIDTH 375 0
DWIDTH 5 0
BBX 5 12 0 0
VVECTOR 3 13
SWIDTH1 0 -1200
DWIDTH1 0 -16
BITMAP 
88
00
70
20
20
20
20
20
20
20
20
70
ENDCHAR
STARTCHAR SF040000
ENCODING 217
SWIDTH 600 0
DWIDTH 8 0
BBX 4 8 0 5
VVECTOR 0 13
SWIDTH1 0 -1200
DWIDTH1 0 -16
BITMAP 
10
10
10
10
10
10
10
F0
ENDCHAR
STARTCHAR SF010000
ENCODING 218
SWIDTH 600 0
DWIDTH 8 0
BBX 5 9 3 -3
VVECTOR 7 13
SWIDTH1 0 -1200
DWIDTH1 0 -16
BITMAP 
F8
80
80
80
80
80
80
80
80
ENDCHAR
STARTCHAR block
ENCODING 219
SWIDTH 600 0
DWIDTH 8 0
BBX 8 16 0 -3
VVECTOR 4 13
SWIDTH1 0 -1200
DWIDTH1 0 -16
BITMAP 
FF
FF
FF
FF
FF
FF
FF
FF
FF
FF
FF
FF
FF
FF
FF
FF
ENDCHAR
STARTCHAR dnblock
ENCODING 220
SWIDTH 600 0
DWIDTH 8 0
BBX 8 8 0 -3
VVECTOR 4 13
SWIDTH1 0 -1200
DWIDTH1 0 -16
BITMAP 
FF
FF
FF
FF
FF
FF
FF
FF
ENDCHAR
STARTCHAR brokenbar
ENCODING 221
SWIDTH 225 0
DWIDTH 3 0
BBX 1 13 1 -3
VVECTOR 2 13
SWIDTH1 0 -1200
DWIDTH1 0 -16
BITMAP 
80
80
80
80
80
00
00
00
80
80
80
80
80
ENDCHAR
STARTCHAR Igrave
ENCODING 222
SWIDTH 375 0
DWIDTH 5 0
BBX 3 13 1 0
VVECTOR 3 13
SWIDTH1 0 -1200
DWIDTH1 0 -16
BITMAP 
80
40
20
E0
40
40
40
40
40
40
40
40
E0
ENDCHAR
STARTCHAR upblock
ENCODING 223
SWIDTH 600 0
DWIDTH 8 0
BBX 8 8 0 5
VVECTOR 4 13
SWIDTH1 0 -1200
DWIDTH1 0 -16
BITMAP 
FF
FF
FF
FF
FF
FF
FF
FF
ENDCHAR
STARTCHAR Oacute
ENCODING 224
SWIDTH 750 0
DWIDTH 10 0
BBX 8 13 1 0
VVECTOR 5 13
SWIDTH1 0 -1200
DWIDTH1 0 -16
BITMAP 
04
08
10
3C
42
81
81
81
81
81
81
42
3C
ENDCHAR
STARTCHAR germandbls
ENCODING 225
SWIDTH 525 0
DWIDTH 7 0
BBX 5 10 1 0
VVECTOR 4 13
SWIDTH1 0 -1200
DWIDTH1 0 -16
BITMAP 
70
88
88
88
90
88
88
88
88
B0
ENDCHAR
STARTCHAR Ocircumflex
ENCODING 226
SWIDTH 750 0
DWIDTH 10 0
BBX 8 13 1 0
VVECTOR 5 13
SWIDTH1 0 -1200
DWIDTH1 0 -16
BITMAP 
18
24
42
3C
42
81
81
81
81
81
81
42
3C
ENDCHAR
STARTCHAR Ograve
ENCODING 227
SWIDTH 750 0
DWIDTH 10 0
BBX 8 13 1 0
VVECTOR 5 13
SWIDTH1 0 -1200
DWIDTH1 0 -16
BITMAP 
20
10
08
3C
42
81
81
81
81
81
81
42
3C
ENDCHAR
STARTCHAR otilde
ENCODING 228
SWIDTH 525 0
DWIDTH 7 0
BBX 5 10 1 0
VVECTOR 4 13
SWIDTH1 0 -1200
DWIDTH1 0 -16
BITMAP 
68
B0
00
70
88
88
88
88
88
70
ENDCHAR
STARTCHAR Otilde
ENCODING 229
SWIDTH 750 0
DWIDTH 10 0
BBX 8 13 1 0
VVECTOR 5 13
SWIDTH1 0 -1200
DWIDTH1 0 -16
BITMAP 
32
4C
00
3C
42
81
81
81
81
81
81
42
3C
ENDCHAR
STARTCHAR mu
ENCODING 230
SWIDTH 600 0
DWIDTH 8 0
BBX 7 9 1 -3
VVECTOR 5 13
SWIDTH1 0 -1200
DWIDTH1 0 -16
BITMAP 
88
88
88
88
88
F6
80
80
80
ENDCHAR
STARTCHAR thorn
ENCODING 231
SWIDTH 525 0
DWIDTH 7 0
BBX 6 13 0 -3
VVECTOR 3 13
SWIDTH1 0 -1200
DWIDTH1 0 -16
BITMAP 
C0
40
40
58
64
44
44
44
44
78
40
40
E0
ENDCHAR
STARTCHAR Thorn
ENCODING 232
SWIDTH 600 0
DWIDTH 8 0
BBX 6 10 1 0
VVECTOR 4 13
SWIDTH1 0 -1200
DWIDTH1 0 -16
BITMAP 
E0
40
78
44
44
44
44
78
40
E0
ENDCHAR
STARTCHAR Uacute
ENCODING 233
SWIDTH 750 0
DWIDTH 10 0
BBX 8 13 1 0
VVECTOR 5 13
SWIDTH1 0 -1200
DWIDTH1 0 -16
BITMAP 
04
08
10
E7
42
42
42
42
42
42
42
42
3C
ENDCHAR
STARTCHAR Ucircumflex
ENCODING 234
SWIDTH 750 0
DWIDTH 10 0
BBX 8 13 1 0
VVECTOR 5 13
SWIDTH1 0 -1200
DWIDTH1 0 -16
BITMAP 
18
24
42
E7
42
42
42
42
42
42
42
42
3C
ENDCHAR
STARTCHAR Ugrave
ENCODING 235
SWIDTH 750 0
DWIDTH 10 0
BBX 8 13 1 0
VVECTOR 5 13
SWIDTH1 0 -1200
DWIDTH1 0 -16
BITMAP 
20
10
08
E7
42
42
42
42
42
42
42
42
3C
ENDCHAR
STARTCHAR yacute
ENCODING 236
SWIDTH 525 0
DWIDTH 7 0
BBX 7 14 0 -3
VVECTOR 4 13
SWIDTH1 0 -1200
DWIDTH1 0 -16
BITMAP 
08
10
20
00
EE
44
44
28
28
10
10
20
A0
C0
ENDCHAR
STARTCHAR Yacute
ENCODING 237
SWIDTH 675 0
DWIDTH 9 0
BBX 9 13 0 0
VVECTOR 5 13
SWIDTH1 0 -1200
DWIDTH1 0 -16
BITMAP 
0400
0800
1000
E380
4100
2200
2200
1400
0800
0800
0800
0800
1C00
ENDCHAR
STARTCHAR macron
ENCODING 238
SWIDTH 450 0
DWIDTH 6 0
BBX 6 1 0 12
VVECTOR 3 13
SWIDTH1 0 -1200
DWIDTH1 0 -16
BITMAP 
FC
ENDCHAR
STARTCHAR acute
ENCODING 239
SWIDTH 300 0
DWIDTH 4 0
BBX 3 3 1 8
VVECTOR 3 13
SWIDTH1 0 -1200
DWIDTH1 0 -16
BITMAP 
20
40
80
ENDCHAR
STARTCHAR uni00AD
ENCODING 240
SWIDTH 300 0
DWIDTH 4 0
BBX 4 1 0 4
VVECTOR 2 13
SWIDTH1 0 -1200
DWIDTH1 0 -16
BITMAP 
F0
ENDCHAR
STARTCHAR plusminus
ENCODING 241
SWIDTH 525 0
DWIDTH 7 0
BBX 5 8 1 0
VVECTOR 4 13
SWIDTH1 0 -1200
DWIDTH1 0 -16
BITMAP 
20
20
F8
20
20
00
00
F8
ENDCHAR
STARTCHAR underscoredbl
ENCODING 242
SWIDTH 525 0
DWIDTH 7 0
BBX 7 3 0 -3
VVECTOR 4 13
SWIDTH1 0 -1200
DWIDTH1 0 -16
BITMAP 
FE
00
FE
ENDCHAR
STARTCHAR threequarters
ENCODING 243
SWIDTH 675 0
DWIDTH 9 0
BBX 9 10 0 0
VVECTOR 5 13
SWIDTH1 0 -1200
DWIDTH1 0 -16
BITMAP 
C080
2100
4200
2400
2880
C980
1280
2280
4380
8080
ENDCHAR
STARTCHAR paragraph
ENCODING 244
SWIDTH 525 0
DWIDTH 7 0
BBX 7 10 0 0
VVECTOR 4 13
SWIDTH1 0 -1200
DWIDTH1 0 -16
BITMAP 
7E
F4
F4
F4
74
14
14
14
14
14
ENDCHAR
STARTCHAR section
ENCODING 245
SWIDTH 450 0
DWIDTH 6 0
BBX 4 12 1 -2
VVECTOR 3 13
SWIDTH1 0 -1200
DWIDTH1 0 -16
BITMAP 
60
90
80
40
A0
90
90
50
20
10
90
60
ENDCHAR
STARTCHAR divide
ENCODING 246
SWIDTH 525 0
DWIDTH 7 0
BBX 5 5 1 3
VVECTOR 4 13
SWIDTH1 0 -1200
DWIDTH1 0 -16
BITMAP 
20
00
F8
00
20
ENDCHAR
STARTCHAR cedilla
ENCODING 247
SWIDTH 300 0
DWIDTH 4 0
BBX 2 3 1 -2
VVECTOR 2 13
SWIDTH1 0 -1200
DWIDTH1 0 -16
BITMAP 
80
40
80
ENDCHAR
STARTCHAR degree
ENCODING 248
SWIDTH 300 0
DWIDTH 4 0
BBX 3 3 1 7
VVECTOR 3 13
SWIDTH1 0 -1200
DWIDTH1 0 -16
BITMAP 
40
A0
40
ENDCHAR
STARTCHAR dieresis
ENCODING 249
SWIDTH 375 0
DWIDTH 5 0
BBX 3 1 1 9
VVECTOR 3 13
SWIDTH1 0 -1200
DWIDTH1 0 -16
BITMAP 
A0
ENDCHAR
STARTCHAR periodcentered
ENCODING 250
SWIDTH 225 0
DWIDTH 3 0
BBX 1 1 1 4
VVECTOR 2 13
SWIDTH1 0 -1200
DWIDTH1 0 -16
BITMAP 
80
ENDCHAR
STARTCHAR uni00B9
ENCODING 251
SWIDTH 225 0
DWIDTH 3 0
BBX 3 6 0 4
VVECTOR 2 13
SWIDTH1 0 -1200
DWIDTH1 0 -16
BITMAP 
40
C0
40
40
40
E0
ENDCHAR
STARTCHAR uni00B3
ENCODING 252
SWIDTH 225 0
DWIDTH 3 0
BBX 3 6 0 4
VVECTOR 2 13
SWIDTH1 0 -1200
DWIDTH1 0 -16
BITMAP 
C0
20
40
20
20
C0
ENDCHAR
STARTCHAR uni00B2
ENCODING 253
SWIDTH 225 0
DWIDTH 3 0
BBX 3 6 0 4
VVECTOR 2 13
SWIDTH1 0 -1200
DWIDTH1 0 -16
BITMAP 
40
A0
20
40
80
E0
ENDCHAR
STARTCHAR filledbox
ENCODING 254
SWIDTH 750 0
DWIDTH 10 0
BBX 10 10 0 0
VVECTOR 5 13
SWIDTH1 0 -1200
DWIDTH1 0 -16
BITMAP 
FFC0
FFC0
FFC0
FFC0
FFC0
FFC0
FFC0
FFC0
FFC0
FFC0
ENDCHAR
STARTCHAR uni00A0
ENCODING 255
SWIDTH 225 0
DWIDTH 3 0
BBX 0 0 3 13
VVECTOR 5 13
SWIDTH1 0 -1200
DWIDTH1 0 -16
BITMAP 
ENDCHAR
STARTCHAR peseta
ENCODING 256
SWIDTH 1050 0
DWIDTH 14 0
BBX 12 10 1 0
VVECTOR 7 13
SWIDTH1 0 -1200
DWIDTH1 0 -16
BITMAP 
F000
4800
4800
4800
4A00
7770
4240
4270
4210
E370
ENDCHAR
STARTCHAR revlogicalnot
ENCODING 257
SWIDTH 525 0
DWIDTH 7 0
BBX 6 5 1 0
VVECTOR 5 13
SWIDTH1 0 -1200
DWIDTH1 0 -16
BITMAP 
FC
80
80
80
80
ENDCHAR
STARTCHAR SF190000
ENCODING 258
SWIDTH 600 0
DWIDTH 8 0
BBX 4 16 0 -3
VVECTOR 0 13
SWIDTH1 0 -1200
DWIDTH1 0 -16
BITMAP 
10
10
10
10
10
10
F0
10
F0
10
10
10
10
10
10
10
ENDCHAR
STARTCHAR SF200000
ENCODING 259
SWIDTH 600 0
DWIDTH 8 0
BBX 5 16 0 -3
VVECTOR 1 13
SWIDTH1 0 -1200
DWIDTH1 0 -16
BITMAP 
28
28
28
28
28
28
28
E8
28
28
28
28
28
28
28
28
ENDCHAR
STARTCHAR SF210000
ENCODING 260
SWIDTH 600 0
DWIDTH 8 0
BBX 5 9 0 -3
VVECTOR 1 13
SWIDTH1 0 -1200
DWIDTH1 0 -16
BITMAP 
F8
28
28
28
28
28
28
28
28
ENDCHAR
STARTCHAR SF220000
ENCODING 261
SWIDTH 600 0
DWIDTH 8 0
BBX 4 10 0 -3
VVECTOR 0 13
SWIDTH1 0 -1200
DWIDTH1 0 -16
BITMAP 
F0
10
F0
10
10
10
10
10
10
10
ENDCHAR
STARTCHAR SF270000
ENCODING 262
SWIDTH 600 0
DWIDTH 8 0
BBX 5 8 0 5
VVECTOR 1 13
SWIDTH1 0 -1200
DWIDTH1 0 -16
BITMAP 
28
28
28
28
28
28
28
F8
ENDCHAR
STARTCHAR SF280000
ENCODING 263
SWIDTH 600 0
DWIDTH 8 0
BBX 4 9 0 4
VVECTOR 0 13
SWIDTH1 0 -1200
DWIDTH1 0 -16
BITMAP 
10
10
10
10
10
10
F0
10
F0
ENDCHAR
STARTCHAR SF360000
ENCODING 264
SWIDTH 600 0
DWIDTH 8 0
BBX 5 16 3 -3
VVECTOR 7 13
SWIDTH1 0 -1200
DWIDTH1 0 -16
BITMAP 
80
80
80
80
80
80
F8
80
F8
80
80
80
80
80
80
80
ENDCHAR
STARTCHAR SF370000
ENCODING 265
SWIDTH 600 0
DWIDTH 8 0
BBX 6 16 2 -3
VVECTOR 6 13
SWIDTH1 0 -1200
DWIDTH1 0 -16
BITMAP 
A0
A0
A0
A0
A0
A0
A0
BC
A0
A0
A0
A0
A0
A0
A0
A0
ENDCHAR
STARTCHAR SF450000
ENCODING 266
SWIDTH 600 0
DWIDTH 8 0
BBX 8 9 0 4
VVECTOR 4 13
SWIDTH1 0 -1200
DWIDTH1 0 -16
BITMAP 
10
10
10
10
10
10
FF
00
FF
ENDCHAR
STARTCHAR SF460000
ENCODING 267
SWIDTH 600 0
DWIDTH 8 0
BBX 8 8 0 5
VVECTOR 4 13
SWIDTH1 0 -1200
DWIDTH1 0 -16
BITMAP 
28
28
28
28
28
28
28
FF
ENDCHAR
STARTCHAR SF470000
ENCODING 268
SWIDTH 600 0
DWIDTH 8 0
BBX 8 10 0 -3
VVECTOR 4 13
SWIDTH1 0 -1200
DWIDTH1 0 -16
BITMAP 
FF
00
FF
10
10
10
10
10
10
10
ENDCHAR
STARTCHAR SF480000
ENCODING 269
SWIDTH 600 0
DWIDTH 8 0
BBX 8 9 0 -3
VVECTOR 4 13
SWIDTH1 0 -1200
DWIDTH1 0 -16
BITMAP 
FF
28
28
28
28
28
28
28
28
ENDCHAR
STARTCHAR SF490000
ENCODING 270
SWIDTH 600 0
DWIDTH 8 0
BBX 6 8 2 5
VVECTOR 6 13
SWIDTH1 0 -1200
DWIDTH1 0 -16
BITMAP 
A0
A0
A0
A0
A0
A0
A0
FC
ENDCHAR
STARTCHAR SF500000
ENCODING 271
SWIDTH 600 0
DWIDTH 8 0
BBX 5 9 3 4
VVECTOR 7 13
SWIDTH1 0 -1200
DWIDTH1 0 -16
BITMAP 
80
80
80
80
80
80
F8
80
F8
ENDCHAR
STARTCHAR SF510000
ENCODING 272
SWIDTH 600 0
DWIDTH 8 0
BBX 5 10 3 -3
VVECTOR 7 13
SWIDTH1 0 -1200
DWIDTH1 0 -16
BITMAP 
F8
80
F8
80
80
80
80
80
80
80
ENDCHAR
STARTCHAR SF520000
ENCODING 273
SWIDTH 600 0
DWIDTH 8 0
BBX 6 9 2 -3
VVECTOR 6 13
SWIDTH1 0 -1200
DWIDTH1 0 -16
BITMAP 
FC
A0
A0
A0
A0
A0
A0
A0
A0
ENDCHAR
STARTCHAR SF530000
ENCODING 274
SWIDTH 600 0
DWIDTH 8 0
BBX 8 16 0 -3
VVECTOR 4 13
SWIDTH1 0 -1200
DWIDTH1 0 -16
BITMAP 
28
28
28
28
28
28
28
FF
28
28
28
28
28
28
28
28
ENDCHAR
STARTCHAR SF540000
ENCODING 275
SWIDTH 600 0
DWIDTH 8 0
BBX 8 16 0 -3
VVECTOR 4 13
SWIDTH1 0 -1200
DWIDTH1 0 -16
BITMAP 
10
10
10
10
10
10
FF
10
FF
10
10
10
10
10
10
10
ENDCHAR
STARTCHAR lfblock
ENCODING 276
SWIDTH 600 0
DWIDTH 8 0
BBX 4 16 0 -3
VVECTOR 0 13
SWIDTH1 0 -1200
DWIDTH1 0 -16
BITMAP 
F0
F0
F0
F0
F0
F0
F0
F0
F0
F0
F0
F0
F0
F0
F0
F0
ENDCHAR
STARTCHAR rtblock
ENCODING 277
SWIDTH 600 0
DWIDTH 8 0
BBX 4 16 4 -3
VVECTOR 8 13
SWIDTH1 0 -1200
DWIDTH1 0 -16
BITMAP 
F0
F0
F0
F0
F0
F0
F0
F0
F0
F0
F0
F0
F0
F0
F0
F0
ENDCHAR
STARTCHAR alpha
ENCODING 278
SWIDTH 600 0
DWIDTH 8 0
BBX 7 7 1 0
VVECTOR 5 13
SWIDTH1 0 -1200
DWIDTH1 0 -16
BITMAP 
74
94
88
88
88
9A
76
ENDCHAR
STARTCHAR Gamma
ENCODING 279
SWIDTH 600 0
DWIDTH 8 0
BBX 6 10 2 0
VVECTOR 6 13
SWIDTH1 0 -1200
DWIDTH1 0 -16
BITMAP 
FC
44
44
40
40
40
40
40
40
E0
ENDCHAR
STARTCHAR pi
ENCODING 280
SWIDTH 525 0
DWIDTH 7 0
BBX 7 7 0 0
VVECTOR 4 13
SWIDTH1 0 -1200
DWIDTH1 0 -16
BITMAP 
7E
A4
24
24
24
24
46
ENDCHAR
STARTCHAR Sigma
ENCODING 281
SWIDTH 600 0
DWIDTH 8 0
BBX 7 10 0 0
VVECTOR 3 13
SWIDTH1 0 -1200
DWIDTH1 0 -16
BITMAP 
FE
42
22
10
08
08
10
22
42
FE
ENDCHAR
STARTCHAR sigma
ENCODING 282
SWIDTH 525 0
DWIDTH 7 0
BBX 6 7 1 0
VVECTOR 5 13
SWIDTH1 0 -1200
DWIDTH1 0 -16
BITMAP 
7C
D0
88
88
88
88
70
ENDCHAR
STARTCHAR tau
ENCODING 283
SWIDTH 450 0
DWIDTH 6 0
BBX 6 7 0 0
VVECTOR 3 13
SWIDTH1 0 -1200
DWIDTH1 0 -16
BITMAP 
7C
90
10
10
10
10
18
ENDCHAR
STARTCHAR Phi
ENCODING 284
SWIDTH 750 0
DWIDTH 10 0
BBX 9 11 1 0
VVECTOR 6 13
SWIDTH1 0 -1200
DWIDTH1 0 -16
BITMAP 
1C00
0800
3E00
4900
8880
8880
8880
4900
3E00
0800
1C00
ENDCHAR
STARTCHAR Theta
ENCODING 285
SWIDTH 675 0
DWIDTH 9 0
BBX 8 10 1 0
VVECTOR 6 13
SWIDTH1 0 -1200
DWIDTH1 0 -16
BITMAP 
3C
42
81
A5
BD
A5
81
81
42
3C
ENDCHAR
STARTCHAR uni03A9
ENCODING 286
SWIDTH 750 0
DWIDTH 10 0
BBX 9 10 1 0
VVECTOR 6 13
SWIDTH1 0 -1200
DWIDTH1 0 -16
BITMAP 
1C00
2200
4100
4100
4100
4100
4100
2200
9480
F780
ENDCHAR
STARTCHAR delta
ENCODING 287
SWIDTH 525 0
DWIDTH 7 0
BBX 5 10 1 0
VVECTOR 4 13
SWIDTH1 0 -1200
DWIDTH1 0 -16
BITMAP 
F0
C0
60
50
88
88
88
88
88
70
ENDCHAR
STARTCHAR infinity
ENCODING 288
SWIDTH 675 0
DWIDTH 9 0
BBX 9 5 0 3
VVECTOR 5 13
SWIDTH1 0 -1200
DWIDTH1 0 -16
BITMAP 
6300
9480
8880
9480
6300
ENDCHAR
STARTCHAR phi1
ENCODING 289
SWIDTH 600 0
DWIDTH 8 0
BBX 7 11 1 -2
VVECTOR 5 13
SWIDTH1 0 -1200
DWIDTH1 0 -16
BITMAP 
10
10
38
54
92
92
92
54
38
10
10
ENDCHAR
STARTCHAR epsilon
ENCODING 290
SWIDTH 450 0
DWIDTH 6 0
BBX 5 7 1 0
VVECTOR 4 13
SWIDTH1 0 -1200
DWIDTH1 0 -16
BITMAP 
70
88
80
70
80
88
70
ENDCHAR
STARTCHAR intersection
ENCODING 291
SWIDTH 675 0
DWIDTH 9 0
BBX 7 9 1 0
VVECTOR 5 13
SWIDTH1 0 -1200
DWIDTH1 0 -16
BITMAP 
38
44
82
82
82
82
82
82
82
ENDCHAR
STARTCHAR equivalence
ENCODING 292
SWIDTH 525 0
DWIDTH 7 0
BBX 5 5 1 2
VVECTOR 4 13
SWIDTH1 0 -1200
DWIDTH1 0 -16
BITMAP 
F8
00
F8
00
F8
ENDCHAR
STARTCHAR greaterequal
ENCODING 293
SWIDTH 525 0
DWIDTH 7 0
BBX 6 7 1 0
VVECTOR 5 13
SWIDTH1 0 -1200
DWIDTH1 0 -16
BITMAP 
C0
30
0C
30
C0
00
FC
ENDCHAR
STARTCHAR lessequal
ENCODING 294
SWIDTH 525 0
DWIDTH 7 0
BBX 6 7 0 0
VVECTOR 3 13
SWIDTH1 0 -1200
DWIDTH1 0 -16
BITMAP 
0C
30
C0
30
0C
00
FC
ENDCHAR
STARTCHAR integraltp
ENCODING 295
SWIDTH 675 0
DWIDTH 9 0
BBX 4 16 4 -3
VVECTOR 8 13
SWIDTH1 0 -1200
DWIDTH1 0 -16
BITMAP 
60
B0
80
80
80
80
80
80
80
80
80
80
80
80
80
80
ENDCHAR
STARTCHAR integralbt
ENCODING 296
SWIDTH 675 0
DWIDTH 9 0
BBX 4 16 1 -3
VVECTOR 2 13
SWIDTH1 0 -1200
DWIDTH1 0 -16
BITMAP 
10
10
10
10
10
10
10
10
10
10
10
10
10
10
D0
60
ENDCHAR
STARTCHAR approxequal
ENCODING 297
SWIDTH 525 0
DWIDTH 7 0
BBX 6 5 1 3
VVECTOR 5 13
SWIDTH1 0 -1200
DWIDTH1 0 -16
BITMAP 
64
98
00
64
98
ENDCHAR
STARTCHAR uni2219
ENCODING 298
SWIDTH 525 0
DWIDTH 7 0
BBX 1 1 3 5
VVECTOR 4 13
SWIDTH1 0 -1200
DWIDTH1 0 -16
BITMAP 
80
ENDCHAR
STARTCHAR radical
ENCODING 299
SWIDTH 675 0
DWIDTH 9 0
BBX 9 11 0 0
VVECTOR 5 13
SWIDTH1 0 -1200
DWIDTH1 0 -16
BITMAP 
0380
0200
0200
0400
0400
0400
E800
2800
2800
1000
1000
ENDCHAR
STARTCHAR uni207F
ENCODING 300
SWIDTH 300 0
DWIDTH 4 0
BBX 4 4 0 4
VVECTOR 2 13
SWIDTH1 0 -1200
DWIDTH1 0 -16
BITMAP 
E0
50
50
50
ENDCHAR
STARTCHAR uni02C9
ENCODING 301
SWIDTH 300 0
DWIDTH 4 0
BBX 4 1 0 12
VVECTOR 2 13
SWIDTH1 0 -1200
DWIDTH1 0 -16
BITMAP 
F0
ENDCHAR
STARTCHAR breve
ENCODING 302
SWIDTH 300 0
DWIDTH 4 0
BBX 4 2 0 11
VVECTOR 2 13
SWIDTH1 0 -1200
DWIDTH1 0 -16
BITMAP 
90
60
ENDCHAR
STARTCHAR dotaccent
ENCODING 303
SWIDTH 300 0
DWIDTH 4 0
BBX 1 1 2 11
VVECTOR 3 13
SWIDTH1 0 -1200
DWIDTH1 0 -16
BITMAP 
80
ENDCHAR
STARTCHAR ring
ENCODING 304
SWIDTH 300 0
DWIDTH 4 0
BBX 3 3 1 10
VVECTOR 3 13
SWIDTH1 0 -1200
DWIDTH1 0 -16
BITMAP 
40
A0
40
ENDCHAR
STARTCHAR hungarumlaut
ENCODING 305
SWIDTH 375 0
DWIDTH 5 0
BBX 5 2 0 11
VVECTOR 3 13
SWIDTH1 0 -1200
DWIDTH1 0 -16
BITMAP 
48
90
ENDCHAR
STARTCHAR ogonek
ENCODING 306
SWIDTH 300 0
DWIDTH 4 0
BBX 4 3 0 -3
VVECTOR 2 13
SWIDTH1 0 -1200
DWIDTH1 0 -16
BITMAP 
80
90
60
ENDCHAR
STARTCHAR caron
ENCODING 307
SWIDTH 375 0
DWIDTH 5 0
BBX 5 3 0 10
VVECTOR 3 13
SWIDTH1 0 -1200
DWIDTH1 0 -16
BITMAP 
88
50
20
ENDCHAR
STARTCHAR quoteleft
ENCODING 308
SWIDTH 300 0
DWIDTH 4 0
BBX 2 3 1 10
VVECTOR 2 13
SWIDTH1 0 -1200
DWIDTH1 0 -16
BITMAP 
40
80
80
ENDCHAR
STARTCHAR quoteright
ENCODING 309
SWIDTH 300 0
DWIDTH 4 0
BBX 2 3 1 10
VVECTOR 2 13
SWIDTH1 0 -1200
DWIDTH1 0 -16
BITMAP 
40
40
80
ENDCHAR
STARTCHAR quotedblleft
ENCODING 310
SWIDTH 450 0
DWIDTH 6 0
BBX 5 3 1 10
VVECTOR 4 13
SWIDTH1 0 -1200
DWIDTH1 0 -16
BITMAP 
48
90
90
ENDCHAR
STARTCHAR quotedblright
ENCODING 311
SWIDTH 450 0
DWIDTH 6 0
BBX 5 3 1 10
VVECTOR 4 13
SWIDTH1 0 -1200
DWIDTH1 0 -16
BITMAP 
48
48
90
ENDCHAR
STARTCHAR endash
ENCODING 312
SWIDTH 525 0
DWIDTH 7 0
BBX 7 1 0 4
VVECTOR 4 13
SWIDTH1 0 -1200
DWIDTH1 0 -16
BITMAP 
FE
ENDCHAR
STARTCHAR emdash
ENCODING 313
SWIDTH 975 0
DWIDTH 13 0
BBX 11 1 1 4
VVECTOR 7 13
SWIDTH1 0 -1200
DWIDTH1 0 -16
BITMAP 
FFE0
ENDCHAR
STARTCHAR uniFFE5
ENCODING 314
SWIDTH 525 0
DWIDTH 7 0
BBX 7 4 0 9
VVECTOR 4 13
SWIDTH1 0 -1200
DWIDTH1 0 -16
BITMAP 
10
28
44
82
ENDCHAR
STARTCHAR dotlessi
ENCODING 315
SWIDTH 525 0
DWIDTH 7 0
BBX 7 2 0 11
VVECTOR 4 13
SWIDTH1 0 -1200
DWIDTH1 0 -16
BITMAP 
72
9C
ENDCHAR
STARTCHAR quotesinglbase
ENCODING 316
SWIDTH 300 0
DWIDTH 4 0
BBX 2 3 1 -2
VVECTOR 2 13
SWIDTH1 0 -1200
DWIDTH1 0 -16
BITMAP 
40
40
80
ENDCHAR
STARTCHAR quotedblbase
ENCODING 317
SWIDTH 450 0
DWIDTH 6 0
BBX 5 3 1 -2
VVECTOR 4 13
SWIDTH1 0 -1200
DWIDTH1 0 -16
BITMAP 
48
48
90
ENDCHAR
STARTCHAR ellipsis
ENCODING 318
SWIDTH 975 0
DWIDTH 13 0
BBX 11 1 1 0
VVECTOR 7 13
SWIDTH1 0 -1200
DWIDTH1 0 -16
BITMAP 
8420
ENDCHAR
STARTCHAR dagger
ENCODING 319
SWIDTH 450 0
DWIDTH 6 0
BBX 5 11 1 0
VVECTOR 4 13
SWIDTH1 0 -1200
DWIDTH1 0 -16
BITMAP 
20
20
20
F8
20
20
20
20
20
20
20
ENDCHAR
STARTCHAR daggerdbl
ENCODING 320
SWIDTH 450 0
DWIDTH 6 0
BBX 5 11 1 0
VVECTOR 4 13
SWIDTH1 0 -1200
DWIDTH1 0 -16
BITMAP 
20
20
20
F8
20
20
20
F8
20
20
20
ENDCHAR
STARTCHAR circumflex
ENCODING 321
SWIDTH 300 0
DWIDTH 4 0
BBX 4 2 0 9
VVECTOR 2 13
SWIDTH1 0 -1200
DWIDTH1 0 -16
BITMAP 
60
90
ENDCHAR
STARTCHAR perthousand
ENCODING 322
SWIDTH 975 0
DWIDTH 13 0
BBX 13 10 0 0
VVECTOR 7 13
SWIDTH1 0 -1200
DWIDTH1 0 -16
BITMAP 
6040
9080
9100
6200
0400
0800
11B0
2248
4248
81B0
ENDCHAR
STARTCHAR Scaron
ENCODING 323
SWIDTH 525 0
DWIDTH 7 0
BBX 5 13 1 0
VVECTOR 4 13
SWIDTH1 0 -1200
DWIDTH1 0 -16
BITMAP 
50
20
00
68
98
88
80
40
10
08
88
C8
B0
ENDCHAR
STARTCHAR guilsinglleft
ENCODING 324
SWIDTH 300 0
DWIDTH 4 0
BBX 3 5 1 0
VVECTOR 3 13
SWIDTH1 0 -1200
DWIDTH1 0 -16
BITMAP 
20
40
80
40
20
ENDCHAR
STARTCHAR OE
ENCODING 325
SWIDTH 900 0
DWIDTH 12 0
BBX 12 10 0 0
VVECTOR 6 13
SWIDTH1 0 -1200
DWIDTH1 0 -16
BITMAP 
3FF0
4610
8200
8240
83C0
8240
8200
8200
4610
3FF0
ENDCHAR
STARTCHAR tilde
ENCODING 326
SWIDTH 300 0
DWIDTH 4 0
BBX 4 2 0 9
VVECTOR 2 13
SWIDTH1 0 -1200
DWIDTH1 0 -16
BITMAP 
D0
B0
ENDCHAR
STARTCHAR trademark
ENCODING 327
SWIDTH 975 0
DWIDTH 13 0
BBX 13 6 0 4
VVECTOR 7 13
SWIDTH1 0 -1200
DWIDTH1 0 -16
BITMAP 
FF38
AAD0
22D0
2210
2210
7738
ENDCHAR
STARTCHAR scaron
ENCODING 328
SWIDTH 375 0
DWIDTH 5 0
BBX 5 11 0 0
VVECTOR 3 13
SWIDTH1 0 -1200
DWIDTH1 0 -16
BITMAP 
88
50
20
00
30
40
40
20
10
10
60
ENDCHAR
STARTCHAR guilsinglright
ENCODING 329
SWIDTH 300 0
DWIDTH 4 0
BBX 3 5 1 0
VVECTOR 3 13
SWIDTH1 0 -1200
DWIDTH1 0 -16
BITMAP 
80
40
20
40
80
ENDCHAR
STARTCHAR oe
ENCODING 330
SWIDTH 675 0
DWIDTH 9 0
BBX 9 7 0 0
VVECTOR 5 13
SWIDTH1 0 -1200
DWIDTH1 0 -16
BITMAP 
7700
8880
8880
8F80
8800
8880
7700
ENDCHAR
STARTCHAR Ydieresis
ENCODING 331
SWIDTH 675 0
DWIDTH 9 0
BBX 9 12 0 0
VVECTOR 5 13
SWIDTH1 0 -1200
DWIDTH1 0 -16
BITMAP 
2200
0000
E380
4100
2200
2200
1400
0800
0800
0800
0800
1C00
ENDCHAR
STARTCHAR gbreve
ENCODING 332
SWIDTH 525 0
DWIDTH 7 0
BBX 6 13 1 -3
VVECTOR 5 13
SWIDTH1 0 -1200
DWIDTH1 0 -16
BITMAP 
48
30
00
7C
88
88
88
70
80
78
84
84
78
ENDCHAR
STARTCHAR Gbreve
ENCODING 333
SWIDTH 750 0
DWIDTH 10 0
BBX 9 13 1 0
VVECTOR 6 13
SWIDTH1 0 -1200
DWIDTH1 0 -16
BITMAP 
1200
0C00
0000
3D00
4300
8100
8000
8000
8380
8100
8100
4100
3E00
ENDCHAR
STARTCHAR Idotaccent
ENCODING 334
SWIDTH 375 0
DWIDTH 5 0
BBX 3 12 1 0
VVECTOR 3 13
SWIDTH1 0 -1200
DWIDTH1 0 -16
BITMAP 
40
00
E0
40
40
40
40
40
40
40
40
E0
ENDCHAR
STARTCHAR scedilla
ENCODING 335
SWIDTH 375 0
DWIDTH 5 0
BBX 3 10 1 -3
VVECTOR 3 13
SWIDTH1 0 -1200
DWIDTH1 0 -16
BITMAP 
60
80
80
40
20
20
C0
40
20
40
ENDCHAR
STARTCHAR Scedilla
ENCODING 336
SWIDTH 525 0
DWIDTH 7 0
BBX 5 13 1 -3
VVECTOR 4 13
SWIDTH1 0 -1200
DWIDTH1 0 -16
BITMAP 
68
98
88
80
60
10
08
88
C8
B0
20
10
20
ENDCHAR
STARTCHAR abreve
ENCODING 337
SWIDTH 450 0
DWIDTH 6 0
BBX 5 10 1 0
VVECTOR 4 13
SWIDTH1 0 -1200
DWIDTH1 0 -16
BITMAP 
90
60
00
60
10
70
90
90
90
68
ENDCHAR
STARTCHAR Abreve
ENCODING 338
SWIDTH 675 0
DWIDTH 9 0
BBX 9 13 0 0
VVECTOR 5 13
SWIDTH1 0 -1200
DWIDTH1 0 -16
BITMAP 
1200
0C00
0000
0800
0800
1400
1400
2200
2200
3E00
4100
4100
E380
ENDCHAR
STARTCHAR aogonek
ENCODING 339
SWIDTH 450 0
DWIDTH 6 0
BBX 5 10 1 -3
VVECTOR 4 13
SWIDTH1 0 -1200
DWIDTH1 0 -16
BITMAP 
60
10
70
90
90
90
68
08
10
08
ENDCHAR
STARTCHAR Aogonek
ENCODING 340
SWIDTH 675 0
DWIDTH 9 0
BBX 9 13 0 -3
VVECTOR 5 13
SWIDTH1 0 -1200
DWIDTH1 0 -16
BITMAP 
0800
0800
1400
1400
2200
2200
3E00
4100
4100
E380
0100
0200
0100
ENDCHAR
STARTCHAR cacute
ENCODING 341
SWIDTH 450 0
DWIDTH 6 0
BBX 5 11 1 0
VVECTOR 4 13
SWIDTH1 0 -1200
DWIDTH1 0 -16
BITMAP 
08
10
20
00
70
88
80
80
80
88
70
ENDCHAR
STARTCHAR Cacute
ENCODING 342
SWIDTH 675 0
DWIDTH 9 0
BBX 8 13 1 0
VVECTOR 6 13
SWIDTH1 0 -1200
DWIDTH1 0 -16
BITMAP 
04
08
10
3D
43
81
80
80
80
80
81
42
3C
ENDCHAR
STARTCHAR ccaron
ENCODING 343
SWIDTH 450 0
DWIDTH 6 0
BBX 5 11 1 0
VVECTOR 4 13
SWIDTH1 0 -1200
DWIDTH1 0 -16
BITMAP 
88
50
20
00
70
88
80
80
80
88
70
ENDCHAR
STARTCHAR Ccaron
ENCODING 344
SWIDTH 675 0
DWIDTH 9 0
BBX 8 13 1 0
VVECTOR 6 13
SWIDTH1 0 -1200
DWIDTH1 0 -16
BITMAP 
22
14
08
3D
43
81
80
80
80
80
81
42
3C
ENDCHAR
STARTCHAR dcaron
ENCODING 345
SWIDTH 525 0
DWIDTH 7 0
BBX 5 12 1 0
VVECTOR 4 13
SWIDTH1 0 -1200
DWIDTH1 0 -16
BITMAP 
88
50
38
08
08
78
88
88
88
88
88
78
ENDCHAR
STARTCHAR Dcaron
ENCODING 346
SWIDTH 750 0
DWIDTH 10 0
BBX 8 13 1 0
VVECTOR 5 13
SWIDTH1 0 -1200
DWIDTH1 0 -16
BITMAP 
44
28
10
F8
46
42
41
41
41
41
42
46
F8
ENDCHAR
STARTCHAR dcroat
ENCODING 347
SWIDTH 525 0
DWIDTH 7 0
BBX 6 10 1 0
VVECTOR 5 13
SWIDTH1 0 -1200
DWIDTH1 0 -16
BITMAP 
18
08
3C
78
88
88
88
88
88
78
ENDCHAR
STARTCHAR ecaron
ENCODING 348
SWIDTH 525 0
DWIDTH 7 0
BBX 5 11 1 0
VVECTOR 4 13
SWIDTH1 0 -1200
DWIDTH1 0 -16
BITMAP 
88
50
20
00
70
88
88
F8
80
88
70
ENDCHAR
STARTCHAR Ecaron
ENCODING 349
SWIDTH 600 0
DWIDTH 8 0
BBX 6 13 1 0
VVECTOR 4 13
SWIDTH1 0 -1200
DWIDTH1 0 -16
BITMAP 
44
28
10
FC
44
40
48
78
48
40
40
44
FC
ENDCHAR
STARTCHAR eogonek
ENCODING 350
SWIDTH 525 0
DWIDTH 7 0
BBX 5 10 1 -3
VVECTOR 4 13
SWIDTH1 0 -1200
DWIDTH1 0 -16
BITMAP 
70
88
88
F8
80
88
70
20
40
20
ENDCHAR
STARTCHAR Eogonek
ENCODING 351
SWIDTH 600 0
DWIDTH 8 0
BBX 6 13 1 -3
VVECTOR 4 13
SWIDTH1 0 -1200
DWIDTH1 0 -16
BITMAP 
FC
44
40
48
78
48
40
40
44
FC
10
20
10
ENDCHAR
STARTCHAR lacute
ENCODING 352
SWIDTH 225 0
DWIDTH 3 0
BBX 3 13 0 0
VVECTOR 2 13
SWIDTH1 0 -1200
DWIDTH1 0 -16
BITMAP 
20
40
80
C0
40
40
40
40
40
40
40
40
60
ENDCHAR
STARTCHAR Lacute
ENCODING 353
SWIDTH 600 0
DWIDTH 8 0
BBX 7 13 1 0
VVECTOR 5 13
SWIDTH1 0 -1200
DWIDTH1 0 -16
BITMAP 
10
20
40
E0
40
40
40
40
40
40
40
42
FE
ENDCHAR
STARTCHAR lcaron
ENCODING 354
SWIDTH 225 0
DWIDTH 3 0
BBX 3 13 0 0
VVECTOR 2 13
SWIDTH1 0 -1200
DWIDTH1 0 -16
BITMAP 
A0
40
00
C0
40
40
40
40
40
40
40
40
60
ENDCHAR
STARTCHAR Lcaron
ENCODING 355
SWIDTH 600 0
DWIDTH 8 0
BBX 8 13 0 0
VVECTOR 4 13
SWIDTH1 0 -1200
DWIDTH1 0 -16
BITMAP 
88
50
20
70
20
20
20
20
20
20
20
21
7F
ENDCHAR
STARTCHAR lslash
ENCODING 356
SWIDTH 225 0
DWIDTH 3 0
BBX 3 10 0 0
VVECTOR 2 13
SWIDTH1 0 -1200
DWIDTH1 0 -16
BITMAP 
C0
40
40
40
60
C0
40
40
40
60
ENDCHAR
STARTCHAR Lslash
ENCODING 357
SWIDTH 600 0
DWIDTH 8 0
BBX 7 10 1 0
VVECTOR 5 13
SWIDTH1 0 -1200
DWIDTH1 0 -16
BITMAP 
E0
40
40
40
60
C0
40
40
42
FE
ENDCHAR
STARTCHAR nacute
ENCODING 358
SWIDTH 525 0
DWIDTH 7 0
BBX 7 11 0 0
VVECTOR 4 13
SWIDTH1 0 -1200
DWIDTH1 0 -16
BITMAP 
08
10
20
00
D8
64
44
44
44
44
66
ENDCHAR
STARTCHAR Nacute
ENCODING 359
SWIDTH 750 0
DWIDTH 10 0
BBX 8 13 1 0
VVECTOR 5 13
SWIDTH1 0 -1200
DWIDTH1 0 -16
BITMAP 
04
08
10
C7
62
62
52
52
4A
4A
46
46
E2
ENDCHAR
STARTCHAR ncaron
ENCODING 360
SWIDTH 525 0
DWIDTH 7 0
BBX 7 11 0 0
VVECTOR 4 13
SWIDTH1 0 -1200
DWIDTH1 0 -16
BITMAP 
44
28
10
00
D8
64
44
44
44
44
66
ENDCHAR
STARTCHAR Ncaron
ENCODING 361
SWIDTH 750 0
DWIDTH 10 0
BBX 8 13 1 0
VVECTOR 5 13
SWIDTH1 0 -1200
DWIDTH1 0 -16
BITMAP 
44
28
10
C7
62
62
52
52
4A
4A
46
46
E2
ENDCHAR
STARTCHAR ohungarumlaut
ENCODING 362
SWIDTH 525 0
DWIDTH 7 0
BBX 6 11 1 0
VVECTOR 5 13
SWIDTH1 0 -1200
DWIDTH1 0 -16
BITMAP 
24
48
90
00
70
88
88
88
88
88
70
ENDCHAR
STARTCHAR Ohungarumlaut
ENCODING 363
SWIDTH 750 0
DWIDTH 10 0
BBX 8 13 1 0
VVECTOR 5 13
SWIDTH1 0 -1200
DWIDTH1 0 -16
BITMAP 
09
12
24
3C
42
81
81
81
81
81
81
42
3C
ENDCHAR
STARTCHAR racute
ENCODING 364
SWIDTH 375 0
DWIDTH 5 0
BBX 4 11 0 0
VVECTOR 2 13
SWIDTH1 0 -1200
DWIDTH1 0 -16
BITMAP 
10
20
40
00
D0
60
40
40
40
40
60
ENDCHAR
STARTCHAR Racute
ENCODING 365
SWIDTH 675 0
DWIDTH 9 0
BBX 8 13 1 0
VVECTOR 6 13
SWIDTH1 0 -1200
DWIDTH1 0 -16
BITMAP 
08
10
20
F8
44
44
44
44
78
48
44
42
E3
ENDCHAR
STARTCHAR rcaron
ENCODING 366
SWIDTH 375 0
DWIDTH 5 0
BBX 5 11 0 0
VVECTOR 3 13
SWIDTH1 0 -1200
DWIDTH1 0 -16
BITMAP 
88
50
20
00
D0
60
40
40
40
40
60
ENDCHAR
STARTCHAR Rcaron
ENCODING 367
SWIDTH 675 0
DWIDTH 9 0
BBX 8 13 1 0
VVECTOR 6 13
SWIDTH1 0 -1200
DWIDTH1 0 -16
BITMAP 
44
28
10
F8
44
44
44
44
78
48
44
42
E3
ENDCHAR
STARTCHAR sacute
ENCODING 368
SWIDTH 375 0
DWIDTH 5 0
BBX 3 11 1 0
VVECTOR 3 13
SWIDTH1 0 -1200
DWIDTH1 0 -16
BITMAP 
20
40
80
00
60
80
80
40
20
20
C0
ENDCHAR
STARTCHAR Sacute
ENCODING 369
SWIDTH 525 0
DWIDTH 7 0
BBX 5 13 1 0
VVECTOR 4 13
SWIDTH1 0 -1200
DWIDTH1 0 -16
BITMAP 
08
10
20
68
98
88
80
60
10
08
88
C8
B0
ENDCHAR
STARTCHAR tcaron
ENCODING 370
SWIDTH 225 0
DWIDTH 3 0
BBX 3 12 0 0
VVECTOR 2 13
SWIDTH1 0 -1200
DWIDTH1 0 -16
BITMAP 
A0
40
00
40
40
E0
40
40
40
40
40
20
ENDCHAR
STARTCHAR Tcaron
ENCODING 371
SWIDTH 675 0
DWIDTH 9 0
BBX 9 13 0 0
VVECTOR 5 13
SWIDTH1 0 -1200
DWIDTH1 0 -16
BITMAP 
2200
1400
0800
FF80
8880
0800
0800
0800
0800
0800
0800
0800
1C00
ENDCHAR
STARTCHAR uni0163
ENCODING 372
SWIDTH 225 0
DWIDTH 3 0
BBX 3 12 0 -3
VVECTOR 2 13
SWIDTH1 0 -1200
DWIDTH1 0 -16
BITMAP 
40
40
E0
40
40
40
40
40
20
40
20
40
ENDCHAR
STARTCHAR uni0162
ENCODING 373
SWIDTH 675 0
DWIDTH 9 0
BBX 9 13 0 -3
VVECTOR 5 13
SWIDTH1 0 -1200
DWIDTH1 0 -16
BITMAP 
FF80
8880
0800
0800
0800
0800
0800
0800
0800
1C00
0800
0400
0800
ENDCHAR
STARTCHAR uhungarumlaut
ENCODING 374
SWIDTH 525 0
DWIDTH 7 0
BBX 7 11 0 0
VVECTOR 4 13
SWIDTH1 0 -1200
DWIDTH1 0 -16
BITMAP 
24
48
90
00
CC
44
44
44
44
4C
36
ENDCHAR
STARTCHAR Uhungarumlaut
ENCODING 375
SWIDTH 750 0
DWIDTH 10 0
BBX 8 13 1 0
VVECTOR 5 13
SWIDTH1 0 -1200
DWIDTH1 0 -16
BITMAP 
12
24
48
E7
42
42
42
42
42
42
42
42
3C
ENDCHAR
STARTCHAR uring
ENCODING 376
SWIDTH 525 0
DWIDTH 7 0
BBX 7 12 0 0
VVECTOR 4 13
SWIDTH1 0 -1200
DWIDTH1 0 -16
BITMAP 
10
28
28
10
00
CC
44
44
44
44
4C
36
ENDCHAR
STARTCHAR Uring
ENCODING 377
SWIDTH 750 0
DWIDTH 10 0
BBX 8 13 1 0
VVECTOR 5 13
SWIDTH1 0 -1200
DWIDTH1 0 -16
BITMAP 
18
24
18
E7
42
42
42
42
42
42
42
42
3C
ENDCHAR
STARTCHAR zacute
ENCODING 378
SWIDTH 525 0
DWIDTH 7 0
BBX 5 11 1 0
VVECTOR 4 13
SWIDTH1 0 -1200
DWIDTH1 0 -16
BITMAP 
10
20
40
00
F8
88
10
20
40
88
F8
ENDCHAR
STARTCHAR Zacute
ENCODING 379
SWIDTH 600 0
DWIDTH 8 0
BBX 8 13 0 0
VVECTOR 4 13
SWIDTH1 0 -1200
DWIDTH1 0 -16
BITMAP 
04
08
10
FF
82
04
04
08
10
20
20
41
FF
ENDCHAR
STARTCHAR zcaron
ENCODING 380
SWIDTH 525 0
DWIDTH 7 0
BBX 5 11 1 0
VVECTOR 4 13
SWIDTH1 0 -1200
DWIDTH1 0 -16
BITMAP 
88
50
20
00
F8
88
10
20
40
88
F8
ENDCHAR
STARTCHAR Zcaron
ENCODING 381
SWIDTH 600 0
DWIDTH 8 0
BBX 8 13 0 0
VVECTOR 4 13
SWIDTH1 0 -1200
DWIDTH1 0 -16
BITMAP 
22
14
08
FF
82
04
04
08
10
20
20
41
FF
ENDCHAR
STARTCHAR zdotaccent
ENCODING 382
SWIDTH 525 0
DWIDTH 7 0
BBX 5 9 1 0
VVECTOR 4 13
SWIDTH1 0 -1200
DWIDTH1 0 -16
BITMAP 
20
00
F8
88
10
20
40
88
F8
ENDCHAR
ENDFONT
